<svg version="1.1" id="Layer_1" xmlns="http://www.w3.org/2000/svg" xmlns:xlink="http://www.w3.org/1999/xlink" x="0px" y="0px"
	 width="100%" viewBox="0 0 500 500" enable-background="new 0 0 500 500" xml:space="preserve">
<path fill="#FFFFFF" opacity="1.000000" stroke="none" 
	d="
M342.000000,501.000000 
	C228.000031,501.000000 114.500053,501.000000 1.000061,501.000000 
	C1.000041,334.333405 1.000041,167.666794 1.000020,1.000150 
	C167.666565,1.000100 334.333130,1.000100 500.999756,1.000050 
	C500.999847,167.666519 500.999847,334.333038 500.999939,500.999786 
	C448.166656,501.000000 395.333344,501.000000 342.000000,501.000000 
M430.055511,346.055664 
	C430.059509,345.777802 430.063538,345.499969 430.804016,345.092499 
	C432.071960,344.990601 433.339874,344.888702 436.394897,344.643158 
	C434.327179,341.433350 433.367859,338.164551 431.301758,337.150360 
	C428.134003,335.595306 424.226532,335.249084 420.592590,335.014069 
	C415.599792,334.691132 411.205994,337.733246 410.731598,341.223877 
	C409.906433,347.295471 411.731476,350.053375 417.967957,352.731293 
	C417.986389,353.103943 418.004822,353.476593 417.302917,353.872284 
	C415.205994,353.872284 413.109100,353.872284 410.498199,353.872284 
	C410.830475,356.179718 410.596313,358.209320 411.423462,359.614105 
	C413.927460,363.866821 426.136139,365.826385 430.401764,362.918365 
	C437.251251,358.248779 437.113464,352.485901 430.055511,346.055664 
M204.860977,345.095032 
	C207.669739,343.655487 207.880493,340.922699 205.765564,338.348724 
	C202.387222,334.237091 197.834763,335.156311 193.422668,334.858307 
	C188.485596,334.524902 184.721436,336.496277 183.270706,340.866791 
	C181.444122,346.369659 183.586899,349.283905 189.681107,352.560547 
	C189.119873,352.945923 188.558655,353.331299 187.144958,353.856476 
	C185.872620,353.931305 184.600281,354.006134 181.693695,354.177094 
	C183.537354,357.257111 184.671921,359.527771 186.152847,361.544006 
	C188.770233,365.107574 192.755859,363.617615 196.254578,364.061249 
	C201.341965,364.706421 205.565033,362.669250 207.236069,358.374481 
	C208.865936,354.185486 207.844681,349.531921 203.163452,346.550201 
	C203.445557,346.108948 203.727646,345.667664 204.860977,345.095032 
M363.871216,265.068054 
	C363.871216,265.068054 363.969116,265.124969 364.628326,264.436401 
	C364.396820,263.304901 364.142822,262.177490 363.937378,261.041290 
	C362.494171,253.058426 360.229889,245.150070 354.072662,239.712479 
	C351.216187,237.189865 350.969360,235.535919 351.689728,232.392975 
	C354.658722,219.438889 355.100220,206.367599 353.225006,193.184998 
	C344.486145,131.751999 287.048950,90.311478 226.159866,101.566277 
	C162.089508,113.409119 122.761063,179.400528 142.971512,241.410553 
	C144.851883,247.179932 147.178253,252.228577 141.024155,257.069519 
	C139.060410,258.614258 138.370514,261.965393 137.456223,264.613739 
	C136.058899,268.661102 134.972824,272.815918 133.628021,277.352264 
	C135.181030,276.724640 136.545471,276.173218 137.289368,275.872559 
	C138.960861,281.223724 140.618256,286.529755 142.361572,292.110870 
	C141.452530,292.522369 139.785568,292.969879 138.505020,293.931793 
	C136.774002,295.232086 135.339813,296.927521 133.778259,298.453400 
	C135.405930,299.966522 136.803909,301.948975 138.714493,302.883972 
	C141.662811,304.326782 144.893509,305.566864 148.123764,305.997131 
	C166.427216,308.435028 184.743256,310.818512 203.100296,312.801117 
	C217.806519,314.389404 232.558975,315.941803 247.326279,316.421570 
	C255.879425,316.699463 264.486450,314.611359 273.097412,313.961243 
	C292.526306,312.494385 312.030273,311.796600 331.389587,309.721405 
	C342.373932,308.543976 353.171326,305.421356 363.957214,302.783508 
	C365.851044,302.320312 367.271271,299.920502 368.910217,298.415070 
	C367.269714,296.901245 365.876892,294.685760 363.942993,294.003113 
	C357.749817,291.816956 351.356232,290.198578 345.180267,288.401855 
	C346.832550,284.531372 348.565460,280.471985 350.429535,276.105408 
	C351.980865,276.258606 353.780243,276.524994 355.587341,276.596588 
	C359.576080,276.754639 363.605103,277.150513 367.539032,276.723999 
	C368.837128,276.583252 370.274109,274.378510 370.943970,272.815887 
	C371.510468,271.494293 371.060699,269.737030 371.060699,267.387512 
	C370.115417,268.659088 369.771973,269.121063 369.939850,268.895233 
	C367.825714,267.552124 365.806580,266.269348 363.871216,265.068054 
M124.447433,346.643250 
	C123.468124,352.333801 122.488808,358.024353 121.497002,363.787476 
	C126.157600,363.787476 130.423813,363.787476 135.300949,363.787476 
	C134.852020,361.475433 135.118423,358.377411 133.960464,357.694489 
	C129.960602,355.335480 132.431427,352.618530 132.580383,349.979156 
	C134.720062,352.859528 136.501450,355.834076 138.269455,358.816589 
	C141.887299,364.919617 142.355835,365.106537 149.857727,363.233978 
	C149.857727,357.481079 149.822617,351.674408 149.885376,345.868744 
	C149.899017,344.605499 150.024002,343.242249 150.517029,342.107147 
	C151.452621,339.953064 152.691513,337.930664 154.092300,335.316223 
	C148.068680,335.316223 143.697617,335.316223 139.364716,335.316223 
	C139.198013,337.726746 139.059555,339.728882 138.921097,341.731049 
	C138.551651,342.082184 138.182205,342.433319 137.812759,342.784485 
	C135.414810,332.307159 128.083923,335.027466 120.068062,335.118500 
	C121.524788,337.979767 122.651031,339.972107 123.557274,342.059937 
	C124.047684,343.189758 124.162674,344.482513 124.447433,346.643250 
M284.785797,355.755432 
	C287.400818,361.057129 290.023895,366.345795 298.005737,363.418335 
	C298.005737,357.736694 297.972382,351.786102 298.032623,345.836487 
	C298.045380,344.576508 298.157440,343.214142 298.649719,342.084595 
	C299.587280,339.933411 300.832092,337.916138 302.285400,335.219696 
	C296.358887,335.219696 292.122467,335.219696 287.352570,335.219696 
	C287.682190,337.452362 287.673828,339.443787 288.310364,341.201630 
	C289.154053,343.531342 290.501678,345.678528 291.632751,347.904175 
	C291.072083,348.322632 290.511383,348.741119 289.950714,349.159576 
	C285.430115,341.164276 282.779114,330.185242 268.802277,336.218048 
	C275.114197,344.933777 273.317932,354.392273 268.969269,363.651917 
	C274.578339,363.651917 278.806122,363.651917 283.293579,363.651917 
	C283.069244,361.488281 283.455627,358.519989 282.602905,358.106384 
	C277.997284,355.872467 280.829895,352.383179 280.849762,349.305664 
	C282.019165,351.253967 283.188599,353.202271 284.785797,355.755432 
M67.049080,362.487091 
	C67.544250,362.986176 68.027473,363.903687 68.536469,363.918243 
	C72.662399,364.035950 76.793159,363.984344 81.303604,363.984344 
	C81.088371,361.621246 81.357933,359.501984 80.646957,357.789886 
	C78.959190,353.725708 78.771416,353.803680 83.958389,351.094788 
	C83.958389,355.823425 83.958389,359.830597 83.958389,363.783813 
	C88.523262,363.783813 92.796906,363.783813 97.749588,363.783813 
	C97.304688,361.474701 97.437309,359.162506 96.435455,357.559143 
	C94.007156,353.672913 91.050598,350.116760 88.262772,346.368195 
	C90.573471,344.520325 91.867462,342.656128 93.437996,342.383148 
	C98.390129,341.522522 97.790596,338.527527 97.071014,335.141724 
	C92.567024,335.141724 88.296097,335.141724 83.435455,335.141724 
	C83.774551,337.883759 84.079674,340.351044 84.427711,343.165405 
	C83.066917,344.309967 81.364197,345.742126 78.537949,348.119293 
	C79.742310,342.831940 80.589790,339.111389 81.481018,335.198730 
	C76.100700,335.198730 71.679237,335.198730 67.150673,335.198730 
	C67.150673,337.104065 66.479431,339.662231 67.258781,340.230316 
	C72.626320,344.142792 69.276009,349.599762 70.078842,354.257324 
	C70.227142,355.117737 69.354202,356.155457 68.948708,357.109680 
	C68.314934,358.601166 67.677818,360.091187 67.049080,362.487091 
M391.229492,364.008392 
	C392.355225,363.912781 393.480957,363.817200 395.594055,363.637756 
	C394.166687,359.742310 392.959167,356.446869 391.751648,353.151459 
	C398.003448,356.333405 397.714264,367.596710 409.331482,362.921906 
	C407.319275,359.027313 405.372711,355.259766 403.359955,351.364136 
	C408.586395,348.899902 407.658142,343.981934 406.621490,340.124969 
	C406.039185,337.958557 402.434174,335.430481 399.969513,335.171326 
	C393.421570,334.482697 386.753387,334.937439 379.768158,334.937439 
	C380.917084,340.177826 382.767334,344.905762 382.758972,349.630402 
	C382.750763,354.285858 380.859741,358.938019 379.699402,364.008392 
	C383.683289,364.008392 386.990082,364.008392 391.229492,364.008392 
M369.822540,341.611298 
	C369.177429,339.420013 368.532288,337.228699 367.942932,335.226959 
	C362.169556,335.226959 356.748199,335.226959 351.055847,335.226959 
	C351.216980,337.321472 350.676422,340.033752 351.610352,340.710175 
	C355.221436,343.325684 352.612213,345.890900 352.029449,348.369324 
	C351.354645,351.239136 351.051849,355.498169 349.166016,356.513275 
	C345.111176,358.696045 346.852051,361.196930 346.873993,363.680603 
	C351.125916,363.680603 355.024200,363.680603 359.545593,363.680603 
	C358.822266,360.666687 358.208832,358.110687 357.333588,354.463776 
	C359.268677,354.463776 361.370514,354.463776 363.472351,354.463776 
	C363.181610,355.806854 362.749176,357.138092 362.635529,358.496002 
	C362.489685,360.238434 362.600098,362.002319 362.600098,363.817902 
	C367.646881,363.817902 372.246643,363.817902 377.166168,363.817902 
	C376.819611,360.937195 378.580139,357.590057 374.024811,356.596832 
	C373.502625,356.483002 373.219604,354.909882 372.969299,353.974915 
	C371.941010,350.134064 370.968292,346.278381 369.822540,341.611298 
M179.836914,344.149811 
	C180.384613,341.061737 179.698563,338.208923 176.631729,337.128540 
	C173.360870,335.976318 169.827042,335.153534 166.375244,335.017273 
	C158.776642,334.717316 155.240952,338.410400 155.239914,345.910706 
	C155.239502,348.908508 155.214325,351.906555 155.246368,354.904022 
	C155.286545,358.662994 159.711975,363.846466 163.471115,363.943726 
	C168.833588,364.082458 174.208725,363.731812 180.717056,363.560181 
	C179.815903,357.554016 178.927078,351.794403 178.149384,346.019836 
	C178.104874,345.689331 178.968140,345.236633 179.836914,344.149811 
M264.796478,359.848969 
	C265.209656,354.346649 265.758453,348.850067 265.990540,343.340118 
	C266.158356,339.356079 262.071991,335.181000 258.065918,334.959381 
	C255.911591,334.840210 253.745224,334.930237 251.584351,334.938904 
	C245.107651,334.964874 241.641678,338.418243 241.638214,344.843292 
	C241.636261,348.500214 241.438416,352.173126 241.729706,355.806732 
	C241.858597,357.414337 242.590149,359.347778 243.719482,360.437683 
	C249.217056,365.743439 257.903442,365.589600 264.796478,359.848969 
M232.415863,334.926849 
	C224.988907,334.926849 217.561951,334.926849 210.253693,334.926849 
	C210.253693,339.321075 210.253693,343.085175 210.253693,346.728333 
	C212.333038,346.728333 214.119324,346.728333 215.037109,346.728333 
	C216.531235,344.579865 217.629440,343.000702 218.727661,341.421539 
	C219.178543,341.695312 219.629440,341.969086 220.080322,342.242859 
	C220.080322,346.389526 220.113235,350.536682 220.049622,354.682373 
	C220.038315,355.419708 219.769135,356.698639 219.377090,356.800995 
	C215.018036,357.939362 217.140900,361.139954 216.684174,363.823792 
	C221.999863,363.823792 226.921722,363.823792 232.222565,363.823792 
	C231.742416,361.198944 233.989258,357.978912 229.593964,356.821228 
	C229.186050,356.713776 228.881546,355.455383 228.870071,354.726074 
	C228.802841,350.450989 228.837051,346.174286 228.837051,341.898132 
	C229.438354,341.688385 230.039673,341.478668 230.640976,341.268951 
	C231.567322,343.085327 232.493668,344.901672 233.394455,346.667877 
	C235.161194,346.667877 236.909805,346.667877 238.635132,346.667877 
	C238.635132,342.639465 238.635132,338.901703 238.635132,334.926849 
	C236.687805,334.926849 235.038864,334.926849 232.415863,334.926849 
M337.842865,345.069397 
	C339.794464,345.069397 341.746063,345.069397 343.544586,345.069397 
	C344.813019,341.089355 343.691040,338.112152 340.411682,336.897247 
	C337.180634,335.700226 333.578400,335.157623 330.111481,335.019562 
	C323.625977,334.761292 319.895294,338.719727 319.892151,345.236908 
	C319.890625,348.391998 319.877289,351.547180 319.895325,354.702148 
	C319.920929,359.177032 324.281067,363.791870 328.748383,363.987213 
	C331.068726,364.088654 333.400208,364.081451 335.721375,363.989838 
	C340.872192,363.786560 344.258453,359.422394 343.386383,353.875183 
	C340.518250,354.566925 337.329315,352.320221 334.806610,356.417145 
	C333.280090,358.896271 328.474213,356.409668 328.341309,353.218414 
	C328.265381,351.394928 328.097717,349.528534 328.387512,347.749207 
	C328.698883,345.837372 328.993073,342.917175 330.188019,342.362946 
	C332.720306,341.188507 335.574677,341.880859 337.842865,345.069397 
M101.640701,360.732513 
	C102.399818,361.821991 103.088364,363.784698 103.930046,363.852722 
	C107.998718,364.181580 112.108566,364.000916 118.553871,364.000916 
	C110.560951,354.045319 112.812233,344.581757 117.178497,335.182343 
	C111.182167,335.182343 106.583000,335.182343 101.449226,335.182343 
	C101.731155,337.371460 101.416504,340.535706 102.317131,340.931000 
	C105.836372,342.475586 104.764412,345.214996 104.786209,347.630768 
	C104.825394,351.976135 105.720047,356.604889 101.640701,360.732513 
M234.587097,381.717133 
	C234.587097,385.354889 234.587097,388.992645 234.587097,392.567444 
	C242.406281,393.723969 243.344727,392.974243 243.410004,385.880280 
	C243.422226,384.550629 243.433273,383.220276 243.405548,381.891083 
	C243.271744,375.477448 241.557632,374.254578 234.587891,375.995087 
	C234.587891,377.522888 234.587891,379.160767 234.587097,381.717133 
M298.578400,387.449829 
	C298.492737,390.879547 299.389099,393.572784 303.564911,393.094788 
	C307.912292,392.597107 307.364746,389.312317 307.197784,386.266327 
	C307.103363,384.543640 307.433228,382.768341 307.136261,381.094025 
	C306.814270,379.278687 306.412445,377.129547 305.228455,375.937317 
	C304.438110,375.141510 301.597443,375.119843 300.787109,375.903015 
	C299.584167,377.065704 299.120209,379.203552 298.797729,381.007874 
	C298.470551,382.838715 298.696930,384.768524 298.578400,387.449829 
M287.802246,393.070831 
	C291.277527,393.539429 293.301910,392.190674 293.339752,388.524292 
	C293.371246,385.473480 293.742767,382.323456 293.098511,379.408600 
	C292.737640,377.775879 290.691437,375.503265 289.269623,375.401245 
	C287.839447,375.298676 285.206238,377.328918 284.925018,378.778564 
	C284.262451,382.193939 284.486023,385.836853 284.779144,389.351990 
	C284.882324,390.589172 286.232697,391.722351 287.802246,393.070831 
M271.681580,391.889069 
	C274.847443,393.911011 278.023315,394.239136 278.885498,389.895905 
	C279.612122,386.235504 279.338531,382.275787 278.857208,378.532196 
	C278.693542,377.259186 276.679840,375.596588 275.265961,375.305725 
	C274.086578,375.063110 272.001404,376.216064 271.271637,377.359772 
	C269.088715,380.781067 271.016388,385.310974 274.789490,386.997742 
	C275.385315,387.264191 275.513641,388.629272 275.779053,389.510284 
	C275.809692,389.611908 275.330292,389.867188 275.043213,390.084717 
	C273.920959,389.434021 272.780670,388.772888 271.203613,387.858521 
	C271.203613,389.383850 271.203613,390.310486 271.681580,391.889069 
M227.690887,392.348663 
	C230.378250,389.015045 228.889465,386.317688 226.537399,383.576996 
	C225.330338,382.170532 224.521637,380.422150 223.532913,378.828308 
	C223.906464,378.564880 224.279999,378.301422 224.653549,378.037994 
	C225.863388,378.778015 227.073227,379.518036 228.800140,380.574341 
	C229.201599,376.801178 227.613190,374.809021 224.860397,375.346985 
	C223.316422,375.648712 221.310089,378.214783 221.187729,379.883514 
	C221.060501,381.618774 222.967880,383.493561 223.955887,385.323334 
	C224.724731,386.747162 225.448029,388.195618 226.191559,389.633118 
	C225.814865,389.791687 225.438187,389.950287 225.061493,390.108856 
	C223.946045,389.246033 222.830597,388.383209 221.373596,387.256165 
	C221.152222,392.830353 221.631927,393.237549 227.690887,392.348663 
M201.691147,375.362701 
	C199.599213,375.362701 197.507294,375.362701 195.267059,375.362701 
	C195.267059,381.456116 195.267059,387.140015 195.267059,392.578369 
	C197.938660,392.578369 200.259262,392.578369 202.579865,392.578369 
	C202.667023,392.174103 202.754166,391.769836 202.841309,391.365570 
	C201.256119,390.753601 199.670929,390.141632 196.977234,389.101715 
	C198.775513,386.998260 200.170700,385.366302 202.151840,383.048981 
	C197.822586,383.540558 197.326477,381.437744 197.816650,379.914185 
	C200.037186,377.903748 201.181244,376.867920 201.691147,375.362701 
M213.136307,383.659119 
	C213.786545,381.181183 214.436768,378.703217 215.159286,375.949829 
	C213.063522,375.949829 210.212677,375.949829 207.361847,375.949829 
	C214.169739,380.503082 206.883774,388.706116 213.136353,392.884918 
	C213.136353,390.121490 213.136353,387.358093 213.136307,383.659119 
M259.113556,377.961914 
	C259.971954,382.923126 260.830353,387.884369 261.680878,392.800110 
	C264.166656,391.410706 264.931610,381.709259 262.828522,375.191711 
	C261.723846,375.960602 260.688293,376.681396 259.113556,377.961914 
z"/>
<path fill="#0B0C0C" opacity="1.000000" stroke="none" 
	d="
M363.787445,264.986572 
	C365.806580,266.269348 367.825714,267.552124 369.939850,268.895233 
	C369.771973,269.121063 370.115417,268.659088 371.060699,267.387512 
	C371.060699,269.737030 371.510468,271.494293 370.943970,272.815887 
	C370.274109,274.378510 368.837128,276.583252 367.539032,276.723999 
	C363.605103,277.150513 359.576080,276.754639 355.587341,276.596588 
	C353.780243,276.524994 351.980865,276.258606 350.429535,276.105408 
	C348.565460,280.471985 346.832550,284.531372 345.180267,288.401855 
	C351.356232,290.198578 357.749817,291.816956 363.942993,294.003113 
	C365.876892,294.685760 367.269714,296.901245 368.910217,298.415070 
	C367.271271,299.920502 365.851044,302.320312 363.957214,302.783508 
	C353.171326,305.421356 342.373932,308.543976 331.389587,309.721405 
	C312.030273,311.796600 292.526306,312.494385 273.097412,313.961243 
	C264.486450,314.611359 255.879425,316.699463 247.326279,316.421570 
	C232.558975,315.941803 217.806519,314.389404 203.100296,312.801117 
	C184.743256,310.818512 166.427216,308.435028 148.123764,305.997131 
	C144.893509,305.566864 141.662811,304.326782 138.714493,302.883972 
	C136.803909,301.948975 135.405930,299.966522 133.778259,298.453400 
	C135.339813,296.927521 136.774002,295.232086 138.505020,293.931793 
	C139.785568,292.969879 141.452530,292.522369 142.361572,292.110870 
	C140.618256,286.529755 138.960861,281.223724 137.289368,275.872559 
	C136.545471,276.173218 135.181030,276.724640 133.628021,277.352264 
	C134.972824,272.815918 136.058899,268.661102 137.456223,264.613739 
	C138.370514,261.965393 139.060410,258.614258 141.024155,257.069519 
	C147.178253,252.228577 144.851883,247.179932 142.971512,241.410553 
	C122.761063,179.400528 162.089508,113.409119 226.159866,101.566277 
	C287.048950,90.311478 344.486145,131.751999 353.225006,193.184998 
	C355.100220,206.367599 354.658722,219.438889 351.689728,232.392975 
	C350.969360,235.535919 351.216187,237.189865 354.072662,239.712479 
	C360.229889,245.150070 362.494171,253.058426 363.937378,261.041290 
	C364.142822,262.177490 364.396820,263.304901 363.898438,264.743225 
	C360.013519,265.239563 359.110626,263.481171 358.099609,260.650421 
	C355.974060,254.698990 353.601562,248.666595 350.205505,243.391663 
	C347.493866,239.179794 342.885101,236.490479 338.915680,236.079956 
	C340.219696,237.814468 341.989075,240.167969 343.482056,242.704422 
	C343.034454,243.026962 342.863190,243.166550 342.352051,243.184998 
	C338.639648,241.713409 335.267120,240.362961 331.894562,239.012497 
	C331.644928,239.438339 331.395264,239.864182 331.145599,240.290024 
	C338.252380,246.039886 339.389069,252.936111 335.099792,260.442871 
	C339.854919,261.288818 344.295624,262.078827 348.736359,262.868805 
	C347.006836,263.987030 345.417023,263.821625 343.872681,264.016571 
	C338.133911,264.741058 332.124756,264.759338 326.761047,266.614960 
	C321.421661,268.462158 316.537598,269.011383 311.274780,267.354248 
	C303.132782,264.790497 294.951111,263.201416 286.271210,264.310303 
	C282.779114,264.756439 279.072052,263.519836 275.462830,263.049072 
	C275.505768,262.564148 275.548706,262.079193 275.591644,261.594269 
	C279.281372,261.594269 282.971100,261.594269 286.980988,261.594269 
	C282.754364,256.737518 278.438904,252.719238 275.273560,247.939301 
	C269.286102,238.897659 260.222015,233.594849 250.814468,230.574219 
	C244.098419,228.417816 235.626709,230.007935 228.339630,231.677490 
	C207.337769,236.489212 186.520355,242.116211 165.670532,247.575989 
	C157.779419,249.642365 149.958160,252.053070 144.493286,258.677765 
	C146.311462,259.124329 148.057465,259.553131 150.438583,260.137939 
	C143.412216,264.094849 140.433228,273.414032 143.368073,282.078888 
	C144.081009,284.183807 146.863190,287.147400 148.482559,287.020447 
	C150.913345,286.829865 153.760895,284.693787 155.293579,282.565643 
	C156.560135,280.806976 156.178986,277.861603 156.575470,275.112457 
	C169.358292,281.073517 181.586761,278.537781 193.416702,272.461487 
	C202.447388,267.822998 209.347031,260.650970 216.125656,253.203384 
	C221.045685,247.797821 226.619171,242.811600 232.553665,238.546066 
	C241.363770,232.213608 249.370117,234.570847 254.289337,244.343491 
	C255.842239,247.428558 256.755371,250.838257 257.928192,254.111252 
	C258.984711,257.059753 259.995819,260.024536 260.981750,263.346680 
	C262.129608,267.860565 264.909332,269.110352 269.109406,268.899506 
	C275.052460,268.601044 281.023315,268.856659 287.414612,268.893768 
	C289.860474,268.856262 291.874023,268.800415 294.309326,268.868073 
	C296.186157,268.926636 297.641235,268.861725 299.413727,268.848297 
	C300.159241,268.885864 300.587372,268.871918 301.301025,269.097870 
	C305.376373,270.429321 309.119171,271.753815 312.972412,272.530884 
	C315.562256,273.053131 318.308319,272.800629 321.387756,272.888000 
	C336.393677,270.146667 350.756683,264.171509 367.365112,270.668091 
	C365.589661,267.848572 364.688538,266.417572 363.787445,264.986572 
M282.010376,228.225998 
	C281.582550,226.854797 281.154724,225.483597 280.443085,223.202713 
	C279.739197,224.994080 279.347748,225.990356 278.492645,227.450134 
	C280.079712,232.811417 281.666779,238.172699 283.253845,243.533981 
	C283.499481,243.474808 283.745087,243.415634 283.990723,243.356476 
	C283.990723,241.886307 283.990723,240.416153 284.778412,239.045639 
	C285.451874,239.986923 286.386505,240.837296 286.751587,241.885925 
	C288.028473,245.553558 289.108795,249.289612 290.115265,253.608292 
	C291.231537,259.829163 295.428375,262.275726 301.267029,262.808716 
	C303.241089,262.988922 305.192322,263.411896 307.157013,263.703369 
	C314.701843,264.822723 318.385040,260.692841 316.842834,252.060532 
	C316.477966,244.393478 316.113129,236.726410 315.885864,228.300842 
	C315.199219,223.846252 313.985657,219.761292 308.380768,217.912613 
	C308.928619,221.298386 309.391846,224.161072 309.797058,227.910675 
	C310.246429,232.426422 310.695831,236.942184 311.145233,241.457932 
	C311.011780,241.459641 310.878326,241.461365 310.744873,241.463074 
	C308.752502,235.645050 306.760162,229.827026 304.882660,223.457123 
	C304.579987,223.634903 304.277313,223.812698 303.300903,224.283264 
	C304.910278,231.850281 306.519653,239.417297 308.042725,247.670395 
	C308.142303,248.118195 308.241882,248.565994 307.955322,249.627518 
	C306.648987,246.413483 305.214813,243.244446 304.064636,239.975464 
	C302.055786,234.266220 300.221680,228.495514 298.314331,222.750565 
	C294.595123,228.520157 299.170105,234.087708 297.664703,240.678772 
	C295.544800,233.972534 293.745270,228.279785 291.945770,222.587051 
	C291.255737,222.789856 290.565704,222.992676 289.875671,223.195480 
	C290.214020,225.163437 290.690033,227.120071 290.852783,229.102448 
	C291.022614,231.171341 290.890686,233.265015 290.890686,235.347839 
	C290.701874,235.339539 290.513062,235.331238 290.324280,235.322937 
	C289.127319,230.841522 287.930389,226.360107 286.733459,221.878693 
	C286.206848,221.808792 285.680267,221.738876 285.153687,221.668976 
	C284.128418,224.078888 283.103149,226.488800 282.046844,228.950638 
	C282.046844,228.950638 282.107300,228.949966 282.010376,228.225998 
M272.699463,219.179779 
	C274.756073,220.092743 276.812683,221.005722 279.144073,222.040680 
	C280.919922,219.938202 282.841583,217.663132 284.763245,215.388046 
	C284.609894,215.125626 284.456573,214.863205 284.303223,214.600800 
	C280.205597,215.789307 276.108002,216.977829 271.412292,218.154282 
	C271.609467,218.418152 271.806641,218.682037 272.699463,219.179779 
M209.611267,172.996002 
	C208.164978,174.889221 206.718674,176.782455 204.806717,179.129974 
	C204.400299,179.621017 203.993881,180.112076 203.476685,180.736969 
	C203.241486,180.031464 203.043671,179.438080 202.952148,177.976440 
	C204.236160,171.845993 205.520157,165.715546 206.795532,159.626343 
	C206.110123,159.581543 203.634277,158.634109 202.468460,159.483887 
	C198.154480,162.628479 193.260376,162.147537 188.181488,162.226776 
	C188.060577,162.093872 187.939667,161.960968 188.006424,161.179062 
	C194.795532,152.503159 203.120010,148.700500 214.210144,153.304535 
	C214.329147,153.228210 214.448166,153.151901 214.567184,153.075592 
	C214.356323,153.081009 214.145477,153.086426 214.328979,152.412643 
	C211.203506,148.823441 208.078033,145.234222 204.474304,141.095810 
	C211.131195,140.664520 214.689911,144.006500 217.752777,148.462357 
	C221.073959,137.240036 225.405334,133.084656 233.443512,133.544357 
	C229.831802,139.040649 226.333130,144.364929 223.447968,148.755585 
	C229.164719,149.844162 234.814560,150.919998 240.899231,152.582108 
	C243.391998,154.996567 245.884750,157.411011 248.377518,159.825470 
	C248.074951,160.326584 247.772385,160.827713 247.469818,161.328827 
	C241.462830,160.102097 235.455841,158.875381 230.301300,157.822739 
	C231.990112,163.852936 233.522858,169.325897 234.859360,175.628754 
	C234.836700,176.478104 234.814041,177.327469 234.388474,178.490265 
	C233.921219,178.529892 233.453949,178.569519 232.957596,178.004852 
	C231.624435,176.797699 230.291275,175.590561 228.967056,173.592407 
	C227.298096,170.995697 225.629135,168.399002 223.004349,164.315170 
	C222.528702,168.239319 222.183670,171.085846 221.431854,174.460663 
	C221.040115,175.958267 220.648376,177.455872 219.914047,179.596359 
	C215.804901,186.312531 211.695740,193.028717 207.317734,200.184326 
	C224.782272,196.670120 242.290085,193.277603 260.731720,196.457794 
	C258.320587,196.932709 256.408569,197.309311 254.496567,197.685928 
	C254.535278,197.971893 254.573975,198.257874 254.612686,198.543839 
	C260.397583,199.236206 266.182495,199.928558 270.863220,200.488770 
	C271.699280,204.135986 272.321014,206.848160 272.275360,209.641754 
	C269.686432,207.825897 267.125549,204.510574 264.503601,204.461563 
	C254.725647,204.278809 244.906845,204.924026 235.145920,205.757156 
	C230.273560,206.173019 225.493256,207.667511 220.868332,208.632980 
	C222.177383,215.373917 223.349106,221.407669 224.573959,227.715057 
	C241.900452,222.570572 258.101044,217.760391 275.050568,212.998871 
	C282.951935,209.104904 291.536011,210.412811 299.679688,210.763077 
	C308.162567,211.127945 315.314880,215.298294 316.808502,224.086395 
	C320.423523,222.631577 323.708374,221.309647 327.626160,220.320511 
	C333.850525,222.732086 334.717529,224.395706 333.776154,232.539520 
	C335.742950,232.647659 337.693665,232.754898 340.446228,233.148605 
	C341.937683,233.601181 343.429108,234.053741 345.754059,234.759216 
	C346.919067,226.254990 348.007294,218.311447 349.102020,210.320389 
	C346.132355,209.617447 344.057129,209.126221 341.172516,208.443390 
	C343.182281,207.992767 344.311584,207.764328 345.427338,207.482269 
	C346.500702,207.210892 347.560028,206.884018 348.601074,206.588470 
	C347.769379,181.231094 339.314148,159.211487 322.882599,140.238342 
	C320.712677,137.732758 318.415222,137.025543 315.171326,136.896454 
	C304.345245,136.465668 293.538055,135.560669 282.723633,134.837357 
	C282.725586,134.544769 282.727539,134.252167 282.729492,133.959564 
	C293.277405,133.346863 303.825317,132.734146 314.731445,132.100632 
	C291.929779,111.560692 265.073059,103.147888 234.859146,106.246582 
	C206.285873,109.177010 183.060898,122.389694 164.976974,145.546860 
	C174.044601,146.731903 182.301666,147.811020 190.558746,148.890121 
	C190.530823,149.426559 190.502899,149.963013 190.474991,150.499451 
	C181.875122,150.830109 173.271454,151.448837 164.677475,151.335007 
	C161.672958,151.295197 160.200485,152.070190 158.715820,154.453583 
	C152.676346,164.148956 148.339767,174.516983 145.968033,185.680405 
	C145.056168,189.972427 144.444336,194.328186 143.693237,198.669724 
	C147.190216,199.274719 149.870422,199.738388 152.550629,200.202072 
	C152.535477,200.392593 152.520325,200.583115 152.505188,200.773636 
	C149.590668,201.174576 146.676163,201.575516 143.392990,202.027176 
	C143.036804,217.034546 144.695526,231.451523 150.920349,245.248230 
	C152.000595,242.588120 152.844620,239.917679 153.051285,237.198776 
	C153.899139,226.043854 159.805435,218.204575 169.677261,213.991379 
	C178.747375,210.120346 181.134155,202.516998 182.696686,194.304596 
	C183.338593,190.930847 182.346863,187.246262 182.098221,183.703079 
	C181.372879,183.700073 180.647537,183.697067 179.922195,183.694061 
	C179.539536,185.585495 179.226257,187.494415 178.755661,189.363724 
	C178.231384,191.446304 177.564011,193.492859 176.958908,195.555084 
	C176.445221,195.558945 175.931519,195.562805 175.417816,195.566650 
	C174.659561,191.141495 173.901306,186.716324 173.137909,182.261139 
	C169.802368,184.641861 166.180679,187.226807 161.578934,190.511276 
	C163.343353,182.580109 166.523117,177.804886 174.543152,176.486038 
	C171.534607,174.595490 169.196762,173.126389 166.858917,171.657303 
	C166.937622,171.368652 167.016312,171.080017 167.095016,170.791382 
	C170.049103,170.989456 173.003189,171.187531 176.201920,171.402008 
	C175.242294,166.148666 176.332108,161.856079 181.797180,158.744949 
	C181.120575,163.704010 180.564880,167.776901 179.966965,172.159164 
	C187.845535,167.337891 192.563110,167.222351 198.061646,171.930069 
	C193.867996,172.978821 190.064331,173.930038 187.188080,174.649338 
	C189.856644,178.448044 192.532104,182.256577 194.438126,186.313339 
	C191.252274,184.764038 188.066422,183.214752 185.557526,181.994675 
	C185.557526,189.355728 185.557526,197.039749 185.557526,205.129333 
	C187.463058,203.672241 189.259079,202.298859 191.563324,200.824814 
	C191.713898,200.535812 191.864456,200.246826 192.019333,200.004349 
	C192.019333,200.004349 191.973541,200.010513 192.681763,200.006973 
	C201.333557,194.552673 209.346771,188.449402 214.523102,178.566345 
	C215.253357,176.854919 215.983597,175.143494 217.030853,172.640396 
	C217.184402,172.172256 217.520721,171.678528 217.459381,171.240479 
	C217.213272,169.482925 217.135880,166.380157 216.468506,166.237152 
	C213.888977,165.684464 212.295166,167.154007 212.154083,170.107971 
	C212.109283,171.045776 210.968857,171.931259 209.611267,172.996002 
M252.841675,250.311020 
	C252.527603,249.551392 252.253403,248.772247 251.892929,248.035309 
	C249.698471,243.549088 246.960663,239.378128 241.329865,239.563568 
	C235.826660,239.744797 232.865417,243.772110 230.956528,248.394409 
	C226.611359,258.916229 226.621384,269.410156 232.087860,279.572601 
	C234.344193,283.767212 237.648422,286.620697 243.631134,285.944061 
	C253.029938,281.948914 258.135986,266.557373 253.948334,254.371109 
	C253.855118,253.944321 253.761887,253.517548 253.834488,252.488739 
	C253.505249,252.003464 253.176010,251.518204 252.841675,250.311020 
M177.411728,213.217896 
	C166.552139,218.232025 157.549377,224.910233 155.749557,237.845688 
	C155.613235,238.825378 156.437500,239.938736 156.306229,241.643112 
	C155.804398,242.971741 155.302567,244.300369 154.748077,245.768372 
	C162.733765,245.056458 166.919556,241.922134 166.987869,236.524551 
	C167.098740,227.765137 171.259048,221.660416 179.048553,218.089905 
	C184.765900,215.469238 190.538834,212.820557 196.531921,210.983368 
	C207.376480,207.658966 218.403915,204.931168 228.767944,202.113876 
	C223.569412,201.843018 217.317917,200.096710 211.908142,201.529190 
	C200.411316,204.573486 189.352325,209.271240 177.411728,213.217896 
M169.897018,237.204117 
	C169.407227,238.826141 168.917419,240.448166 168.256821,242.635849 
	C170.766388,241.955582 172.911362,241.374146 174.279205,241.003372 
	C173.864136,229.701340 181.462387,225.050827 189.130081,220.397034 
	C179.151031,221.686646 172.425446,226.563843 169.897018,237.204117 
M248.250122,224.692566 
	C247.449509,224.892502 246.610199,225.001205 245.859787,225.319519 
	C245.185364,225.605591 244.608551,226.121841 244.473450,226.212234 
	C253.863647,228.220703 263.259979,228.505783 270.002808,218.642639 
	C262.819824,220.606400 255.892929,222.500153 248.250122,224.692566 
M272.397949,226.106842 
	C271.752167,226.007797 271.106384,225.908768 269.901398,225.723969 
	C271.450317,224.846832 272.591644,224.200546 273.732941,223.554245 
	C273.435699,223.090210 273.138489,222.626175 272.841248,222.162140 
	C270.883698,223.467743 267.835693,224.401443 267.232849,226.169067 
	C266.398926,228.614304 266.850891,231.908340 267.844757,234.403763 
	C268.389282,235.771011 271.179626,236.243835 272.894836,237.089218 
	C273.059448,235.048248 272.856689,234.160736 273.206116,233.780106 
	C275.531647,231.246811 275.696198,228.863342 272.397949,226.106842 
M321.868622,227.426880 
	C320.541016,233.887680 322.874023,237.036423 327.557220,236.607040 
	C328.225739,235.211060 328.474121,234.217758 329.070801,233.524094 
	C332.738953,229.259750 327.113007,227.423874 326.712433,224.242767 
	C325.153595,225.058182 323.594788,225.873596 321.868622,227.426880 
M256.956024,282.258118 
	C258.108063,278.768250 259.260132,275.278381 260.412201,271.788483 
	C260.170898,271.751556 259.929626,271.714600 259.688324,271.677643 
	C256.829590,276.847137 253.970825,282.016632 250.739868,287.859222 
	C252.936615,285.955841 254.724533,284.406708 256.956024,282.258118 
M208.355682,157.898453 
	C208.426224,158.404007 208.496750,158.909561 208.567291,159.415115 
	C209.118759,159.170044 209.670227,158.924988 210.221695,158.679932 
	C209.857346,158.342758 209.493011,158.005600 208.355682,157.898453 
M266.222198,270.375305 
	C266.402496,270.381317 266.582764,270.387360 266.763062,270.393372 
	C266.676422,270.288605 266.589752,270.183838 266.222198,270.375305 
z"/>
<path fill="#121212" opacity="1.000000" stroke="none" 
	d="
M124.447220,346.172516 
	C124.162674,344.482513 124.047684,343.189758 123.557274,342.059937 
	C122.651031,339.972107 121.524788,337.979767 120.068062,335.118500 
	C128.083923,335.027466 135.414810,332.307159 137.812759,342.784485 
	C138.182205,342.433319 138.551651,342.082184 138.921097,341.731049 
	C139.059555,339.728882 139.198013,337.726746 139.364716,335.316223 
	C143.697617,335.316223 148.068680,335.316223 154.092300,335.316223 
	C152.691513,337.930664 151.452621,339.953064 150.517029,342.107147 
	C150.024002,343.242249 149.899017,344.605499 149.885376,345.868744 
	C149.822617,351.674408 149.857727,357.481079 149.857727,363.233978 
	C142.355835,365.106537 141.887299,364.919617 138.269455,358.816589 
	C136.501450,355.834076 134.720062,352.859528 132.580383,349.979156 
	C132.431427,352.618530 129.960602,355.335480 133.960464,357.694489 
	C135.118423,358.377411 134.852020,361.475433 135.300949,363.787476 
	C130.423813,363.787476 126.157600,363.787476 121.497002,363.787476 
	C122.488808,358.024353 123.468124,352.333801 124.447220,346.172516 
M140.279709,341.546875 
	C139.651581,342.034027 138.413284,342.800354 138.488861,342.965515 
	C139.327057,344.797455 140.368835,346.536255 141.355591,348.300232 
	C141.797791,348.149353 142.239990,347.998505 142.682190,347.847626 
	C142.200180,345.856445 141.718185,343.865295 140.279709,341.546875 
z"/>
<path fill="#080808" opacity="1.000000" stroke="none" 
	d="
M284.571899,355.453003 
	C283.188599,353.202271 282.019165,351.253967 280.849762,349.305664 
	C280.829895,352.383179 277.997284,355.872467 282.602905,358.106384 
	C283.455627,358.519989 283.069244,361.488281 283.293579,363.651917 
	C278.806122,363.651917 274.578339,363.651917 268.969269,363.651917 
	C273.317932,354.392273 275.114197,344.933777 268.802277,336.218048 
	C282.779114,330.185242 285.430115,341.164276 289.950714,349.159576 
	C290.511383,348.741119 291.072083,348.322632 291.632751,347.904175 
	C290.501678,345.678528 289.154053,343.531342 288.310364,341.201630 
	C287.673828,339.443787 287.682190,337.452362 287.352570,335.219696 
	C292.122467,335.219696 296.358887,335.219696 302.285400,335.219696 
	C300.832092,337.916138 299.587280,339.933411 298.649719,342.084595 
	C298.157440,343.214142 298.045380,344.576508 298.032623,345.836487 
	C297.972382,351.786102 298.005737,357.736694 298.005737,363.418335 
	C290.023895,366.345795 287.400818,361.057129 284.571899,355.453003 
z"/>
<path fill="#0C0C0C" opacity="1.000000" stroke="none" 
	d="
M67.045601,362.034485 
	C67.677818,360.091187 68.314934,358.601166 68.948708,357.109680 
	C69.354202,356.155457 70.227142,355.117737 70.078842,354.257324 
	C69.276009,349.599762 72.626320,344.142792 67.258781,340.230316 
	C66.479431,339.662231 67.150673,337.104065 67.150673,335.198730 
	C71.679237,335.198730 76.100700,335.198730 81.481018,335.198730 
	C80.589790,339.111389 79.742310,342.831940 78.537949,348.119293 
	C81.364197,345.742126 83.066917,344.309967 84.427711,343.165405 
	C84.079674,340.351044 83.774551,337.883759 83.435455,335.141724 
	C88.296097,335.141724 92.567024,335.141724 97.071014,335.141724 
	C97.790596,338.527527 98.390129,341.522522 93.437996,342.383148 
	C91.867462,342.656128 90.573471,344.520325 88.262772,346.368195 
	C91.050598,350.116760 94.007156,353.672913 96.435455,357.559143 
	C97.437309,359.162506 97.304688,361.474701 97.749588,363.783813 
	C92.796906,363.783813 88.523262,363.783813 83.958389,363.783813 
	C83.958389,359.830597 83.958389,355.823425 83.958389,351.094788 
	C78.771416,353.803680 78.959190,353.725708 80.646957,357.789886 
	C81.357933,359.501984 81.088371,361.621246 81.303604,363.984344 
	C76.793159,363.984344 72.662399,364.035950 68.536469,363.918243 
	C68.027473,363.903687 67.544250,362.986176 67.045601,362.034485 
z"/>
<path fill="#0B0B0B" opacity="1.000000" stroke="none" 
	d="
M390.763184,364.008392 
	C386.990082,364.008392 383.683289,364.008392 379.699402,364.008392 
	C380.859741,358.938019 382.750763,354.285858 382.758972,349.630402 
	C382.767334,344.905762 380.917084,340.177826 379.768158,334.937439 
	C386.753387,334.937439 393.421570,334.482697 399.969513,335.171326 
	C402.434174,335.430481 406.039185,337.958557 406.621490,340.124969 
	C407.658142,343.981934 408.586395,348.899902 403.359955,351.364136 
	C405.372711,355.259766 407.319275,359.027313 409.331482,362.921906 
	C397.714264,367.596710 398.003448,356.333405 391.751648,353.151459 
	C392.959167,356.446869 394.166687,359.742310 395.594055,363.637756 
	C393.480957,363.817200 392.355225,363.912781 390.763184,364.008392 
M392.135315,342.207184 
	C391.952698,343.699768 391.770081,345.192322 391.554657,346.953217 
	C393.212646,346.953217 394.312469,347.240143 395.137512,346.886353 
	C396.391418,346.348663 397.454742,345.366516 398.599030,344.573181 
	C397.526337,343.715057 396.536224,342.704590 395.347534,342.060486 
	C394.715820,341.718109 393.740082,342.010712 392.135315,342.207184 
z"/>
<path fill="#0D0D0D" opacity="1.000000" stroke="none" 
	d="
M369.898834,342.019714 
	C370.968292,346.278381 371.941010,350.134064 372.969299,353.974915 
	C373.219604,354.909882 373.502625,356.483002 374.024811,356.596832 
	C378.580139,357.590057 376.819611,360.937195 377.166168,363.817902 
	C372.246643,363.817902 367.646881,363.817902 362.600098,363.817902 
	C362.600098,362.002319 362.489685,360.238434 362.635529,358.496002 
	C362.749176,357.138092 363.181610,355.806854 363.472351,354.463776 
	C361.370514,354.463776 359.268677,354.463776 357.333588,354.463776 
	C358.208832,358.110687 358.822266,360.666687 359.545593,363.680603 
	C355.024200,363.680603 351.125916,363.680603 346.873993,363.680603 
	C346.852051,361.196930 345.111176,358.696045 349.166016,356.513275 
	C351.051849,355.498169 351.354645,351.239136 352.029449,348.369324 
	C352.612213,345.890900 355.221436,343.325684 351.610352,340.710175 
	C350.676422,340.033752 351.216980,337.321472 351.055847,335.226959 
	C356.748199,335.226959 362.169556,335.226959 367.942932,335.226959 
	C368.532288,337.228699 369.177429,339.420013 369.898834,342.019714 
z"/>
<path fill="#101010" opacity="1.000000" stroke="none" 
	d="
M179.622925,344.495300 
	C178.968140,345.236633 178.104874,345.689331 178.149384,346.019836 
	C178.927078,351.794403 179.815903,357.554016 180.717056,363.560181 
	C174.208725,363.731812 168.833588,364.082458 163.471115,363.943726 
	C159.711975,363.846466 155.286545,358.662994 155.246368,354.904022 
	C155.214325,351.906555 155.239502,348.908508 155.239914,345.910706 
	C155.240952,338.410400 158.776642,334.717316 166.375244,335.017273 
	C169.827042,335.153534 173.360870,335.976318 176.631729,337.128540 
	C179.698563,338.208923 180.384613,341.061737 179.622925,344.495300 
M163.934021,346.701141 
	C163.939804,349.342957 163.627182,352.045837 164.115982,354.595032 
	C164.298553,355.547089 166.305817,356.635834 167.563904,356.750092 
	C168.689072,356.852295 169.928223,355.699493 171.117081,355.100433 
	C170.392105,354.012604 169.627884,352.948486 168.952545,351.830688 
	C168.180481,350.552765 167.487411,349.227112 166.411423,347.296783 
	C168.991791,347.069550 170.393524,346.946075 171.831360,346.819458 
	C172.044800,344.063873 172.116196,341.917053 168.549133,342.005951 
	C165.859070,342.072998 163.400879,341.960449 163.934021,346.701141 
z"/>
<path fill="#0D0D0D" opacity="1.000000" stroke="none" 
	d="
M189.968842,352.129395 
	C183.586899,349.283905 181.444122,346.369659 183.270706,340.866791 
	C184.721436,336.496277 188.485596,334.524902 193.422668,334.858307 
	C197.834763,335.156311 202.387222,334.237091 205.765564,338.348724 
	C207.880493,340.922699 207.669739,343.655487 204.024475,345.068207 
	C201.848450,344.690643 200.479034,344.424927 199.176941,343.967560 
	C197.552368,343.396942 196.027802,342.418671 194.369705,342.122925 
	C193.639465,341.992645 192.686462,343.111206 191.834595,343.662781 
	C192.615097,344.342957 193.304626,345.429993 194.192780,345.628510 
	C197.085495,346.275269 200.050812,346.597351 202.988190,347.044373 
	C207.844681,349.531921 208.865936,354.185486 207.236069,358.374481 
	C205.565033,362.669250 201.341965,364.706421 196.254578,364.061249 
	C192.755859,363.617615 188.770233,365.107574 186.152847,361.544006 
	C184.671921,359.527771 183.537354,357.257111 181.693695,354.177094 
	C184.600281,354.006134 185.872620,353.931305 187.966156,353.886536 
	C191.424469,354.924438 194.027084,356.050232 196.727921,356.840240 
	C197.265182,356.997375 198.178482,355.868958 198.918381,355.333374 
	C198.234268,354.567078 197.668396,353.333221 196.843292,353.124573 
	C194.610672,352.560028 192.267914,352.431122 189.968842,352.129395 
z"/>
<path fill="#0B0B0B" opacity="1.000000" stroke="none" 
	d="
M417.975830,352.170959 
	C411.731476,350.053375 409.906433,347.295471 410.731598,341.223877 
	C411.205994,337.733246 415.599792,334.691132 420.592590,335.014069 
	C424.226532,335.249084 428.134003,335.595306 431.301758,337.150360 
	C433.367859,338.164551 434.327179,341.433350 436.394897,344.643158 
	C433.339874,344.888702 432.071960,344.990601 430.094543,345.063873 
	C428.401031,344.434235 427.270325,343.985046 426.461212,343.203064 
	C424.264130,341.079620 421.048645,341.525879 418.815155,345.040344 
	C422.754456,345.690186 426.386475,346.289337 430.018524,346.888489 
	C437.113464,352.485901 437.251251,358.248779 430.401764,362.918365 
	C426.136139,365.826385 413.927460,363.866821 411.423462,359.614105 
	C410.596313,358.209320 410.830475,356.179718 410.498199,353.872284 
	C413.109100,353.872284 415.205994,353.872284 417.911591,354.162659 
	C419.007538,358.023956 421.790405,356.917664 423.842041,356.866394 
	C424.687592,356.845276 425.507690,355.805908 426.339386,355.229675 
	C425.656189,354.490021 425.088806,353.315247 424.266968,353.096588 
	C422.231903,352.555054 420.080505,352.450867 417.975830,352.170959 
z"/>
<path fill="#080808" opacity="1.000000" stroke="none" 
	d="
M264.466705,360.093750 
	C257.903442,365.589600 249.217056,365.743439 243.719482,360.437683 
	C242.590149,359.347778 241.858597,357.414337 241.729706,355.806732 
	C241.438416,352.173126 241.636261,348.500214 241.638214,344.843292 
	C241.641678,338.418243 245.107651,334.964874 251.584351,334.938904 
	C253.745224,334.930237 255.911591,334.840210 258.065918,334.959381 
	C262.071991,335.181000 266.158356,339.356079 265.990540,343.340118 
	C265.758453,348.850067 265.209656,354.346649 264.466705,360.093750 
M252.582321,342.016113 
	C251.734940,343.132263 250.347992,344.162689 250.154190,345.382660 
	C249.768829,347.808441 250.174698,350.347717 250.005005,352.823090 
	C249.807693,355.701294 250.653458,357.025024 253.847153,357.040009 
	C257.144806,357.055450 257.783325,355.513733 257.623199,352.745117 
	C257.489380,350.431671 257.445587,348.092133 257.632629,345.786102 
	C257.893982,342.563416 256.318268,341.650085 252.582321,342.016113 
z"/>
<path fill="#0D0D0D" opacity="1.000000" stroke="none" 
	d="
M232.902893,334.926849 
	C235.038864,334.926849 236.687805,334.926849 238.635132,334.926849 
	C238.635132,338.901703 238.635132,342.639465 238.635132,346.667877 
	C236.909805,346.667877 235.161194,346.667877 233.394455,346.667877 
	C232.493668,344.901672 231.567322,343.085327 230.640976,341.268951 
	C230.039673,341.478668 229.438354,341.688385 228.837051,341.898132 
	C228.837051,346.174286 228.802841,350.450989 228.870071,354.726074 
	C228.881546,355.455383 229.186050,356.713776 229.593964,356.821228 
	C233.989258,357.978912 231.742416,361.198944 232.222565,363.823792 
	C226.921722,363.823792 221.999863,363.823792 216.684174,363.823792 
	C217.140900,361.139954 215.018036,357.939362 219.377090,356.800995 
	C219.769135,356.698639 220.038315,355.419708 220.049622,354.682373 
	C220.113235,350.536682 220.080322,346.389526 220.080322,342.242859 
	C219.629440,341.969086 219.178543,341.695312 218.727661,341.421539 
	C217.629440,343.000702 216.531235,344.579865 215.037109,346.728333 
	C214.119324,346.728333 212.333038,346.728333 210.253693,346.728333 
	C210.253693,343.085175 210.253693,339.321075 210.253693,334.926849 
	C217.561951,334.926849 224.988907,334.926849 232.902893,334.926849 
z"/>
<path fill="#090909" opacity="1.000000" stroke="none" 
	d="
M337.394623,345.045532 
	C335.574677,341.880859 332.720306,341.188507 330.188019,342.362946 
	C328.993073,342.917175 328.698883,345.837372 328.387512,347.749207 
	C328.097717,349.528534 328.265381,351.394928 328.341309,353.218414 
	C328.474213,356.409668 333.280090,358.896271 334.806610,356.417145 
	C337.329315,352.320221 340.518250,354.566925 343.386383,353.875183 
	C344.258453,359.422394 340.872192,363.786560 335.721375,363.989838 
	C333.400208,364.081451 331.068726,364.088654 328.748383,363.987213 
	C324.281067,363.791870 319.920929,359.177032 319.895325,354.702148 
	C319.877289,351.547180 319.890625,348.391998 319.892151,345.236908 
	C319.895294,338.719727 323.625977,334.761292 330.111481,335.019562 
	C333.578400,335.157623 337.180634,335.700226 340.411682,336.897247 
	C343.691040,338.112152 344.813019,341.089355 343.544586,345.069397 
	C341.746063,345.069397 339.794464,345.069397 337.394623,345.045532 
z"/>
<path fill="#070707" opacity="1.000000" stroke="none" 
	d="
M101.641510,360.326477 
	C105.720047,356.604889 104.825394,351.976135 104.786209,347.630768 
	C104.764412,345.214996 105.836372,342.475586 102.317131,340.931000 
	C101.416504,340.535706 101.731155,337.371460 101.449226,335.182343 
	C106.583000,335.182343 111.182167,335.182343 117.178497,335.182343 
	C112.812233,344.581757 110.560951,354.045319 118.553871,364.000916 
	C112.108566,364.000916 107.998718,364.181580 103.930046,363.852722 
	C103.088364,363.784698 102.399818,361.821991 101.641510,360.326477 
z"/>
<path fill="#F0A62D" opacity="1.000000" stroke="none" 
	d="
M234.587494,381.257874 
	C234.587891,379.160767 234.587891,377.522888 234.587891,375.995087 
	C241.557632,374.254578 243.271744,375.477448 243.405548,381.891083 
	C243.433273,383.220276 243.422226,384.550629 243.410004,385.880280 
	C243.344727,392.974243 242.406281,393.723969 234.587097,392.567444 
	C234.587097,388.992645 234.587097,385.354889 234.587494,381.257874 
z"/>
<path fill="#EF9E1B" opacity="1.000000" stroke="none" 
	d="
M298.629639,387.052399 
	C298.696930,384.768524 298.470551,382.838715 298.797729,381.007874 
	C299.120209,379.203552 299.584167,377.065704 300.787109,375.903015 
	C301.597443,375.119843 304.438110,375.141510 305.228455,375.937317 
	C306.412445,377.129547 306.814270,379.278687 307.136261,381.094025 
	C307.433228,382.768341 307.103363,384.543640 307.197784,386.266327 
	C307.364746,389.312317 307.912292,392.597107 303.564911,393.094788 
	C299.389099,393.572784 298.492737,390.879547 298.629639,387.052399 
z"/>
<path fill="#EF9E1B" opacity="1.000000" stroke="none" 
	d="
M287.407898,392.986938 
	C286.232697,391.722351 284.882324,390.589172 284.779144,389.351990 
	C284.486023,385.836853 284.262451,382.193939 284.925018,378.778564 
	C285.206238,377.328918 287.839447,375.298676 289.269623,375.401245 
	C290.691437,375.503265 292.737640,377.775879 293.098511,379.408600 
	C293.742767,382.323456 293.371246,385.473480 293.339752,388.524292 
	C293.301910,392.190674 291.277527,393.539429 287.407898,392.986938 
z"/>
<path fill="#EFA121" opacity="1.000000" stroke="none" 
	d="
M271.442596,391.563110 
	C271.203613,390.310486 271.203613,389.383850 271.203613,387.858521 
	C272.780670,388.772888 273.920959,389.434021 275.043213,390.084717 
	C275.330292,389.867188 275.809692,389.611908 275.779053,389.510284 
	C275.513641,388.629272 275.385315,387.264191 274.789490,386.997742 
	C271.016388,385.310974 269.088715,380.781067 271.271637,377.359772 
	C272.001404,376.216064 274.086578,375.063110 275.265961,375.305725 
	C276.679840,375.596588 278.693542,377.259186 278.857208,378.532196 
	C279.338531,382.275787 279.612122,386.235504 278.885498,389.895905 
	C278.023315,394.239136 274.847443,393.911011 271.442596,391.563110 
z"/>
<path fill="#EF9E1B" opacity="1.000000" stroke="none" 
	d="
M227.351318,392.579041 
	C221.631927,393.237549 221.152222,392.830353 221.373596,387.256165 
	C222.830597,388.383209 223.946045,389.246033 225.061493,390.108856 
	C225.438187,389.950287 225.814865,389.791687 226.191559,389.633118 
	C225.448029,388.195618 224.724731,386.747162 223.955887,385.323334 
	C222.967880,383.493561 221.060501,381.618774 221.187729,379.883514 
	C221.310089,378.214783 223.316422,375.648712 224.860397,375.346985 
	C227.613190,374.809021 229.201599,376.801178 228.800140,380.574341 
	C227.073227,379.518036 225.863388,378.778015 224.653549,378.037994 
	C224.279999,378.301422 223.906464,378.564880 223.532913,378.828308 
	C224.521637,380.422150 225.330338,382.170532 226.537399,383.576996 
	C228.889465,386.317688 230.378250,389.015045 227.351318,392.579041 
z"/>
<path fill="#EF9E1B" opacity="1.000000" stroke="none" 
	d="
M202.008240,375.597412 
	C201.181244,376.867920 200.037186,377.903748 197.816650,379.914185 
	C197.326477,381.437744 197.822586,383.540558 202.151840,383.048981 
	C200.170700,385.366302 198.775513,386.998260 196.977234,389.101715 
	C199.670929,390.141632 201.256119,390.753601 202.841309,391.365570 
	C202.754166,391.769836 202.667023,392.174103 202.579865,392.578369 
	C200.259262,392.578369 197.938660,392.578369 195.267059,392.578369 
	C195.267059,387.140015 195.267059,381.456116 195.267059,375.362701 
	C197.507294,375.362701 199.599213,375.362701 202.008240,375.597412 
z"/>
<path fill="#EFA121" opacity="1.000000" stroke="none" 
	d="
M213.136322,384.126892 
	C213.136353,387.358093 213.136353,390.121490 213.136353,392.884918 
	C206.883774,388.706116 214.169739,380.503082 207.361847,375.949829 
	C210.212677,375.949829 213.063522,375.949829 215.159286,375.949829 
	C214.436768,378.703217 213.786545,381.181183 213.136322,384.126892 
z"/>
<path fill="#EFA121" opacity="1.000000" stroke="none" 
	d="
M259.383148,377.682068 
	C260.688293,376.681396 261.723846,375.960602 262.828522,375.191711 
	C264.931610,381.709259 264.166656,391.410706 261.680878,392.800110 
	C260.830353,387.884369 259.971954,382.923126 259.383148,377.682068 
z"/>
<path fill="#E4E4E4" opacity="1.000000" stroke="none" 
	d="
M189.824982,352.344971 
	C192.267914,352.431122 194.610672,352.560028 196.843292,353.124573 
	C197.668396,353.333221 198.234268,354.567078 198.918381,355.333374 
	C198.178482,355.868958 197.265182,356.997375 196.727921,356.840240 
	C194.027084,356.050232 191.424469,354.924438 188.392395,353.816620 
	C188.558655,353.331299 189.119873,352.945923 189.824982,352.344971 
z"/>
<path fill="#E4E4E4" opacity="1.000000" stroke="none" 
	d="
M430.037018,346.472076 
	C426.386475,346.289337 422.754456,345.690186 418.815155,345.040344 
	C421.048645,341.525879 424.264130,341.079620 426.461212,343.203064 
	C427.270325,343.985046 428.401031,344.434235 429.726288,345.128662 
	C430.063538,345.499969 430.059509,345.777802 430.037018,346.472076 
z"/>
<path fill="#E4E4E4" opacity="1.000000" stroke="none" 
	d="
M203.075821,346.797302 
	C200.050812,346.597351 197.085495,346.275269 194.192780,345.628510 
	C193.304626,345.429993 192.615097,344.342957 191.834595,343.662781 
	C192.686462,343.111206 193.639465,341.992645 194.369705,342.122925 
	C196.027802,342.418671 197.552368,343.396942 199.176941,343.967560 
	C200.479034,344.424927 201.848450,344.690643 203.598877,345.133911 
	C203.727646,345.667664 203.445557,346.108948 203.075821,346.797302 
z"/>
<path fill="#E4E4E4" opacity="1.000000" stroke="none" 
	d="
M417.971893,352.451111 
	C420.080505,352.450867 422.231903,352.555054 424.266968,353.096588 
	C425.088806,353.315247 425.656189,354.490021 426.339386,355.229675 
	C425.507690,355.805908 424.687592,356.845276 423.842041,356.866394 
	C421.790405,356.917664 419.007538,358.023956 418.271790,354.151123 
	C418.004822,353.476593 417.986389,353.103943 417.971893,352.451111 
z"/>
<path fill="#14E9B7" opacity="1.000000" stroke="none" 
	d="
M188.496658,162.664017 
	C193.260376,162.147537 198.154480,162.628479 202.468460,159.483887 
	C203.634277,158.634109 206.110123,159.581543 206.795532,159.626343 
	C205.520157,165.715546 204.236160,171.845993 202.599335,178.564331 
	C200.429245,181.753693 198.611969,184.355148 196.591064,186.853333 
	C195.994156,186.521729 195.600876,186.293427 195.207581,186.065109 
	C192.532104,182.256577 189.856644,178.448044 187.188080,174.649338 
	C190.064331,173.930038 193.867996,172.978821 198.061646,171.930069 
	C192.563110,167.222351 187.845535,167.337891 179.966965,172.159164 
	C180.564880,167.776901 181.120575,163.704010 181.797180,158.744949 
	C176.332108,161.856079 175.242294,166.148666 176.201920,171.402008 
	C173.003189,171.187531 170.049103,170.989456 167.095016,170.791382 
	C167.016312,171.080017 166.937622,171.368652 166.858917,171.657303 
	C169.196762,173.126389 171.534607,174.595490 174.543152,176.486038 
	C166.523117,177.804886 163.343353,182.580109 161.578934,190.511276 
	C166.180679,187.226807 169.802368,184.641861 173.137909,182.261139 
	C173.901306,186.716324 174.659561,191.141495 175.417816,195.566650 
	C175.931519,195.562805 176.445221,195.558945 176.958908,195.555084 
	C177.564011,193.492859 178.231384,191.446304 178.755661,189.363724 
	C179.226257,187.494415 179.539536,185.585495 179.922195,183.694061 
	C180.647537,183.697067 181.372879,183.700073 182.098221,183.703079 
	C182.346863,187.246262 183.338593,190.930847 182.696686,194.304596 
	C181.134155,202.516998 178.747375,210.120346 169.677261,213.991379 
	C159.805435,218.204575 153.899139,226.043854 153.051285,237.198776 
	C152.844620,239.917679 152.000595,242.588120 150.920349,245.248230 
	C144.695526,231.451523 143.036804,217.034546 143.392990,202.027176 
	C146.676163,201.575516 149.590668,201.174576 152.505188,200.773636 
	C152.520325,200.583115 152.535477,200.392593 152.550629,200.202072 
	C149.870422,199.738388 147.190216,199.274719 143.693237,198.669724 
	C144.444336,194.328186 145.056168,189.972427 145.968033,185.680405 
	C148.339767,174.516983 152.676346,164.148956 158.715820,154.453583 
	C160.200485,152.070190 161.672958,151.295197 164.677475,151.335007 
	C173.271454,151.448837 181.875122,150.830109 190.474991,150.499451 
	C190.502899,149.963013 190.530823,149.426559 190.558746,148.890121 
	C182.301666,147.811020 174.044601,146.731903 164.976974,145.546860 
	C183.060898,122.389694 206.285873,109.177010 234.859146,106.246582 
	C265.073059,103.147888 291.929779,111.560692 314.731445,132.100632 
	C303.825317,132.734146 293.277405,133.346863 282.729492,133.959564 
	C282.727539,134.252167 282.725586,134.544769 282.723633,134.837357 
	C293.538055,135.560669 304.345245,136.465668 315.171326,136.896454 
	C318.415222,137.025543 320.712677,137.732758 322.882599,140.238342 
	C339.314148,159.211487 347.769379,181.231094 348.601074,206.588470 
	C347.560028,206.884018 346.500702,207.210892 345.427338,207.482269 
	C344.311584,207.764328 343.182281,207.992767 341.172516,208.443390 
	C344.057129,209.126221 346.132355,209.617447 349.102020,210.320389 
	C348.007294,218.311447 346.919067,226.254990 345.754059,234.759216 
	C343.429108,234.053741 341.937683,233.601181 340.089813,232.553726 
	C339.733398,228.223114 339.733398,224.487381 339.733398,220.545059 
	C335.156097,220.064758 331.073120,219.636322 326.586121,219.124023 
	C323.959076,218.684097 321.735992,218.328003 319.512878,217.971924 
	C319.554199,217.614578 319.595520,217.257217 319.636841,216.899872 
	C326.029175,216.355057 332.421509,215.810257 339.862579,215.176071 
	C338.202271,209.207077 336.712708,203.475861 334.929718,197.837402 
	C334.654297,196.966354 333.061127,196.013550 332.029327,195.955719 
	C318.768707,195.212509 305.495789,194.692734 292.233398,193.977859 
	C280.743805,193.358551 269.263733,192.562729 257.779449,191.844925 
	C257.772156,191.386002 257.764862,190.927078 257.757568,190.468140 
	C281.723816,189.307648 305.690033,188.147156 329.989960,186.970505 
	C328.779327,185.003357 327.568756,182.687225 326.039520,180.605179 
	C309.420258,157.978287 286.927246,147.381256 259.172241,147.694458 
	C260.775299,147.009018 262.194153,146.646835 263.852509,146.223541 
	C260.067139,143.560684 251.775726,144.770203 248.240311,148.494720 
	C245.526382,149.878494 242.995392,150.937164 240.464386,151.995834 
	C234.814560,150.919998 229.164719,149.844162 223.447968,148.755585 
	C226.333130,144.364929 229.831802,139.040649 233.443512,133.544357 
	C225.405334,133.084656 221.073959,137.240036 217.752777,148.462357 
	C214.689911,144.006500 211.131195,140.664520 204.474304,141.095810 
	C208.078033,145.234222 211.203506,148.823441 214.147018,152.727264 
	C213.965057,153.041901 213.994400,152.991302 213.994400,152.991302 
	C203.120010,148.700500 194.795532,152.503159 187.669250,161.631470 
	C187.720276,162.277267 188.108459,162.470642 188.496658,162.664017 
z"/>
<path fill="#6A23DA" opacity="1.000000" stroke="none" 
	d="
M258.988098,148.017700 
	C286.927246,147.381256 309.420258,157.978287 326.039520,180.605179 
	C327.568756,182.687225 328.779327,185.003357 329.989960,186.970505 
	C305.690033,188.147156 281.723816,189.307648 257.757568,190.468140 
	C257.764862,190.927078 257.772156,191.386002 257.779449,191.844925 
	C269.263733,192.562729 280.743805,193.358551 292.233398,193.977859 
	C305.495789,194.692734 318.768707,195.212509 332.029327,195.955719 
	C333.061127,196.013550 334.654297,196.966354 334.929718,197.837402 
	C336.712708,203.475861 338.202271,209.207077 339.862579,215.176071 
	C332.421509,215.810257 326.029175,216.355057 319.636841,216.899872 
	C319.595520,217.257217 319.554199,217.614578 319.512878,217.971924 
	C321.735992,218.328003 323.959076,218.684097 326.584961,219.318970 
	C326.987732,219.597763 326.993225,219.987701 326.993225,219.987701 
	C323.708374,221.309647 320.423523,222.631577 316.808502,224.086395 
	C315.314880,215.298294 308.162567,211.127945 299.679688,210.763077 
	C291.536011,210.412811 282.951935,209.104904 274.501495,212.637177 
	C273.615875,211.370422 273.279327,210.465378 272.942749,209.560333 
	C272.321014,206.848160 271.699280,204.135986 270.863220,200.488770 
	C266.182495,199.928558 260.397583,199.236206 254.612686,198.543839 
	C254.573975,198.257874 254.535278,197.971893 254.496567,197.685928 
	C256.408569,197.309311 258.320587,196.932709 260.731720,196.457794 
	C242.290085,193.277603 224.782272,196.670120 207.317734,200.184326 
	C211.695740,193.028717 215.804901,186.312531 220.529663,179.298294 
	C225.092422,178.869858 229.039551,178.739502 232.986694,178.609131 
	C233.453949,178.569519 233.921219,178.529892 235.063324,178.332489 
	C241.566391,177.758240 247.394623,177.341782 253.222839,176.925323 
	C253.212570,176.534454 253.202301,176.143585 253.192047,175.752731 
	C247.146561,175.434769 241.101089,175.116821 235.055618,174.798859 
	C233.522858,169.325897 231.990112,163.852936 230.301300,157.822739 
	C235.455841,158.875381 241.462830,160.102097 247.469818,161.328827 
	C247.772385,160.827713 248.074951,160.326584 248.377518,159.825470 
	C245.884750,157.411011 243.391998,154.996567 240.681808,152.288971 
	C242.995392,150.937164 245.526382,149.878494 248.520355,148.703659 
	C251.870880,149.443237 254.758423,150.298981 257.558411,151.128769 
	C257.829071,150.539810 258.408600,149.278763 258.988098,148.017700 
z"/>
<path fill="#F1ECE2" opacity="1.000000" stroke="none" 
	d="
M301.015472,268.857971 
	C300.587372,268.871918 300.159241,268.885864 299.328827,268.516846 
	C297.246887,268.337463 295.567230,268.541016 293.887604,268.744568 
	C291.874023,268.800415 289.860474,268.856262 287.133789,268.606323 
	C278.757660,267.927917 271.164429,267.428619 264.728577,262.359039 
	C264.068115,261.838776 262.287689,262.740295 261.026947,262.982117 
	C259.995819,260.024536 258.984711,257.059753 257.928192,254.111252 
	C256.755371,250.838257 255.842239,247.428558 254.289337,244.343491 
	C249.370117,234.570847 241.363770,232.213608 232.553665,238.546066 
	C226.619171,242.811600 221.045685,247.797821 216.125656,253.203384 
	C209.347031,260.650970 202.447388,267.822998 193.416702,272.461487 
	C181.586761,278.537781 169.358292,281.073517 156.575470,275.112457 
	C156.178986,277.861603 156.560135,280.806976 155.293579,282.565643 
	C153.760895,284.693787 150.913345,286.829865 148.482559,287.020447 
	C146.863190,287.147400 144.081009,284.183807 143.368073,282.078888 
	C140.433228,273.414032 143.412216,264.094849 150.438583,260.137939 
	C148.057465,259.553131 146.311462,259.124329 144.493286,258.677765 
	C149.958160,252.053070 157.779419,249.642365 165.670532,247.575989 
	C186.520355,242.116211 207.337769,236.489212 228.339630,231.677490 
	C235.626709,230.007935 244.098419,228.417816 250.814468,230.574219 
	C260.222015,233.594849 269.286102,238.897659 275.273560,247.939301 
	C278.438904,252.719238 282.754364,256.737518 286.980988,261.594269 
	C282.971100,261.594269 279.281372,261.594269 275.591644,261.594269 
	C275.548706,262.079193 275.505768,262.564148 275.462830,263.049072 
	C279.072052,263.519836 282.779114,264.756439 286.271210,264.310303 
	C294.951111,263.201416 303.132782,264.790497 311.274780,267.354248 
	C316.537598,269.011383 321.421661,268.462158 326.761047,266.614960 
	C332.124756,264.759338 338.133911,264.741058 343.872681,264.016571 
	C345.417023,263.821625 347.006836,263.987030 348.736359,262.868805 
	C344.295624,262.078827 339.854919,261.288818 335.099792,260.442871 
	C339.389069,252.936111 338.252380,246.039886 331.145599,240.290024 
	C331.395264,239.864182 331.644928,239.438339 331.894562,239.012497 
	C335.267120,240.362961 338.639648,241.713409 342.475342,243.417267 
	C343.266205,243.872696 343.593933,243.974716 343.998566,244.340973 
	C344.305573,244.602432 344.535675,244.599640 344.765778,244.596832 
	C344.686584,244.201904 344.607422,243.806976 344.431183,243.238617 
	C344.174988,242.849243 343.983124,242.667999 343.758423,242.521454 
	C341.989075,240.167969 340.219696,237.814468 338.915680,236.079956 
	C342.885101,236.490479 347.493866,239.179794 350.205505,243.391663 
	C353.601562,248.666595 355.974060,254.698990 358.099609,260.650421 
	C359.110626,263.481171 360.013519,265.239563 363.568848,265.087494 
	C363.969116,265.124969 363.871216,265.068054 363.829346,265.027313 
	C364.688538,266.417572 365.589661,267.848572 367.365112,270.668091 
	C350.756683,264.171509 336.393677,270.146667 321.125305,272.618530 
	C316.628143,271.434967 312.822754,270.377502 308.956177,269.640961 
	C306.354004,269.145233 303.665405,269.103058 301.015472,268.857971 
M270.069427,249.557175 
	C270.290100,249.520111 270.510742,249.483063 270.731415,249.446014 
	C270.706177,249.310883 270.689819,249.061829 270.654266,249.059052 
	C270.417206,249.040543 270.175995,249.074661 270.305847,248.488983 
	C269.971039,247.894958 269.636261,247.300934 269.108063,246.049820 
	C265.781525,240.899551 261.459198,237.164124 254.329361,235.699402 
	C259.518616,240.153610 263.965912,243.970978 268.746582,248.210236 
	C269.171661,248.465637 269.596741,248.721024 270.069427,249.557175 
M223.797104,237.316116 
	C210.970428,241.361252 198.991104,247.443680 184.981522,248.562439 
	C173.655228,249.466934 162.644760,254.326187 152.303528,257.205750 
	C153.941147,260.211945 155.510849,263.595581 157.552689,266.665131 
	C158.913696,268.711151 160.629547,271.116974 162.742950,271.949707 
	C168.073364,274.050049 180.311539,272.148621 185.604355,268.997101 
	C181.414871,268.997101 177.480347,268.997101 173.545837,268.997101 
	C178.455444,267.322174 183.334732,266.059479 188.267410,265.060333 
	C198.186783,263.051117 206.507690,258.646545 212.966156,250.548386 
	C216.558548,246.043961 221.097275,242.294250 225.707596,237.958069 
	C225.324631,237.714615 224.941681,237.471161 223.797104,237.316116 
M151.276978,283.633026 
	C155.068878,280.087738 147.586777,282.085205 150.669006,278.162842 
	C153.114197,275.682495 153.072495,273.580963 148.720718,268.914978 
	C150.151840,267.984192 151.507111,267.102722 154.145996,265.386444 
	C151.363693,265.056793 149.309982,264.147339 148.340118,264.814209 
	C144.206192,267.656677 144.418137,272.208282 144.929260,276.505402 
	C145.332108,279.892273 145.719284,283.689331 151.276978,283.633026 
z"/>
<path fill="#F3EEE3" opacity="1.000000" stroke="none" 
	d="
M272.609070,209.601044 
	C273.279327,210.465378 273.615875,211.370422 274.127014,212.612839 
	C258.101044,217.760391 241.900452,222.570572 224.573959,227.715057 
	C223.349106,221.407669 222.177383,215.373917 220.868332,208.632980 
	C225.493256,207.667511 230.273560,206.173019 235.145920,205.757156 
	C244.906845,204.924026 254.725647,204.278809 264.503601,204.461563 
	C267.125549,204.510574 269.686432,207.825897 272.609070,209.601044 
z"/>
<path fill="#F3F3F3" opacity="1.000000" stroke="none" 
	d="
M308.129028,246.984314 
	C306.519653,239.417297 304.910278,231.850281 303.835999,224.145020 
	C304.371124,224.006775 304.767792,224.009003 304.767822,224.009003 
	C306.760162,229.827026 308.752502,235.645050 310.744873,241.463074 
	C310.878326,241.461365 311.011780,241.459641 311.145233,241.457932 
	C310.695831,236.942184 310.246429,232.426422 310.181641,227.458588 
	C312.293549,227.690781 314.020905,228.375061 315.748291,229.059357 
	C316.113129,236.726410 316.477966,244.393478 316.454681,252.560455 
	C315.443756,254.602570 314.820953,256.144745 313.761963,258.767151 
	C312.959167,255.811707 312.457397,253.964371 311.902679,251.928040 
	C311.560913,251.796783 311.272064,251.854523 310.979828,251.939117 
	C310.976410,251.965973 310.922272,251.965744 310.635498,252.010254 
	C310.244049,252.707443 310.139313,253.360138 310.063538,254.358353 
	C310.388306,255.807251 310.684113,256.910645 310.989502,258.006775 
	C310.999115,257.999573 311.011780,257.979340 310.738525,258.091248 
	C310.609070,259.094604 310.752869,259.986053 310.940796,261.150940 
	C304.500366,259.157501 306.873383,250.183655 300.204681,248.561966 
	C302.064697,251.018875 303.633606,253.179596 299.409576,254.604996 
	C298.670776,253.110779 297.983154,251.720001 297.295502,250.329239 
	C297.097443,250.401138 296.899384,250.473038 296.701355,250.544937 
	C297.131134,253.448837 297.560944,256.352722 298.150818,260.338074 
	C294.939270,257.349915 292.601562,255.174789 290.263794,252.999664 
	C289.108795,249.289612 288.028473,245.553558 286.751587,241.885925 
	C286.386505,240.837296 285.451874,239.986923 284.426941,238.600098 
	C284.042389,237.095093 284.009338,236.035629 284.307861,234.988953 
	C285.005463,234.583130 285.371521,234.164505 285.737579,233.745880 
	C285.508575,233.571030 285.279572,233.396164 285.050568,233.221313 
	C284.708069,233.822021 284.365540,234.422745 283.721130,234.815872 
	C282.972107,232.705093 282.524994,230.801895 282.077881,228.898697 
	C283.103149,226.488800 284.128418,224.078888 285.153687,221.668976 
	C285.680267,221.738876 286.206848,221.808792 286.733459,221.878693 
	C287.930389,226.360107 289.127319,230.841522 290.324280,235.322937 
	C290.513062,235.331238 290.701874,235.339539 290.890686,235.347839 
	C290.890686,233.265015 291.022614,231.171341 290.852783,229.102448 
	C290.690033,227.120071 290.214020,225.163437 289.875671,223.195480 
	C290.565704,222.992676 291.255737,222.789856 291.945770,222.587051 
	C293.745270,228.279785 295.544800,233.972534 297.664703,240.678772 
	C299.170105,234.087708 294.595123,228.520157 298.314331,222.750565 
	C300.221680,228.495514 302.055786,234.266220 304.064636,239.975464 
	C305.214813,243.244446 306.648987,246.413483 308.511444,249.318481 
	C310.146118,248.903259 311.224670,248.797058 312.431854,248.678207 
	C312.075439,246.672272 311.782379,245.022781 311.423523,243.003204 
	C310.074799,244.633057 309.101929,245.808685 308.129028,246.984314 
M284.780640,229.758499 
	C284.554504,229.755646 284.328339,229.752777 284.102173,229.749908 
	C284.114838,229.895325 284.100769,230.156326 284.144684,230.166458 
	C284.350983,230.214096 284.573181,230.192795 284.780640,229.758499 
z"/>
<path fill="#F1ECE2" opacity="1.000000" stroke="none" 
	d="
M178.113846,213.291199 
	C189.352325,209.271240 200.411316,204.573486 211.908142,201.529190 
	C217.317917,200.096710 223.569412,201.843018 228.767944,202.113876 
	C218.403915,204.931168 207.376480,207.658966 196.531921,210.983368 
	C190.538834,212.820557 184.765900,215.469238 179.048553,218.089905 
	C171.259048,221.660416 167.098740,227.765137 166.987869,236.524551 
	C166.919556,241.922134 162.733765,245.056458 154.748077,245.768372 
	C155.302567,244.300369 155.804398,242.971741 156.841949,241.219193 
	C158.327362,239.243225 159.433334,237.763718 160.194214,236.124069 
	C161.779129,232.708572 162.530975,228.675385 164.823242,225.877640 
	C167.699875,222.366623 171.829788,219.899261 175.306839,216.853653 
	C176.424866,215.874374 177.188232,214.490158 178.113846,213.291199 
z"/>
<path fill="#F0F0F0" opacity="1.000000" stroke="none" 
	d="
M253.668655,253.090759 
	C253.761887,253.517548 253.855118,253.944321 253.634613,254.947128 
	C252.904465,257.673706 252.488068,259.824280 252.021744,261.568909 
	C250.690186,256.748016 250.018860,252.024368 247.979660,247.992554 
	C245.130127,242.358612 239.203995,242.544037 235.846680,247.989029 
	C233.175720,252.320892 231.068863,256.867828 233.257202,262.235535 
	C233.193176,262.869293 233.315018,263.380920 233.472076,264.258209 
	C231.481216,269.467957 233.856140,278.279846 238.374084,281.250458 
	C239.848236,282.219727 242.054108,282.076172 243.875153,282.790588 
	C243.525833,284.013580 243.226700,284.887512 242.927582,285.761444 
	C237.648422,286.620697 234.344193,283.767212 232.087860,279.572601 
	C226.621384,269.410156 226.611359,258.916229 230.956528,248.394409 
	C232.865417,243.772110 235.826660,239.744797 241.329865,239.563568 
	C246.960663,239.378128 249.698471,243.549088 251.892929,248.035309 
	C252.253403,248.772247 252.527603,249.551392 252.613647,250.811829 
	C252.813293,251.905334 253.240967,252.498047 253.668655,253.090759 
z"/>
<path fill="#6823D7" opacity="1.000000" stroke="none" 
	d="
M196.794693,186.956604 
	C198.611969,184.355148 200.429245,181.753693 202.546173,178.998474 
	C203.043671,179.438080 203.241486,180.031464 203.476685,180.736969 
	C203.993881,180.112076 204.400299,179.621017 205.468536,178.973358 
	C208.770157,178.871780 211.409973,178.926849 214.049774,178.981903 
	C209.346771,188.449402 201.333557,194.552673 192.224854,199.628967 
	C193.443527,195.152832 195.119110,191.054718 196.794693,186.956604 
z"/>
<path fill="#BBBBBB" opacity="1.000000" stroke="none" 
	d="
M310.979889,258.014008 
	C310.684113,256.910645 310.388306,255.807251 310.314636,254.192245 
	C310.665253,253.108994 310.793762,252.537369 310.922272,251.965744 
	C310.922272,251.965744 310.976410,251.965973 311.226105,251.975525 
	C311.475800,251.985077 311.955597,252.117050 311.955627,252.117050 
	C312.457397,253.964371 312.959167,255.811707 313.761963,258.767151 
	C314.820953,256.144745 315.443756,254.602570 316.419922,252.994904 
	C318.385040,260.692841 314.701843,264.822723 307.157013,263.703369 
	C305.192322,263.411896 303.241089,262.988922 301.267029,262.808716 
	C295.428375,262.275726 291.231537,259.829163 290.189545,253.303986 
	C292.601562,255.174789 294.939270,257.349915 298.150818,260.338074 
	C297.560944,256.352722 297.131134,253.448837 296.701355,250.544937 
	C296.899384,250.473038 297.097443,250.401138 297.295502,250.329239 
	C297.983154,251.720001 298.670776,253.110779 299.409576,254.604996 
	C303.633606,253.179596 302.064697,251.018875 300.204681,248.561966 
	C306.873383,250.183655 304.500366,259.157501 310.940796,261.150940 
	C310.752869,259.986053 310.609070,259.094604 310.808441,258.208710 
	C311.220367,258.264069 311.289124,258.313934 311.357849,258.363800 
	C311.231873,258.247192 311.105865,258.130615 310.979889,258.014008 
z"/>
<path fill="#15DEB0" opacity="1.000000" stroke="none" 
	d="
M196.591064,186.853333 
	C195.119110,191.054718 193.443527,195.152832 191.870758,199.630737 
	C191.973541,200.010513 192.019333,200.004349 191.740723,199.965027 
	C191.326447,200.258972 191.190781,200.592239 191.055115,200.925491 
	C189.259079,202.298859 187.463058,203.672241 185.557526,205.129333 
	C185.557526,197.039749 185.557526,189.355728 185.557526,181.994675 
	C188.066422,183.214752 191.252274,184.764038 194.822845,186.189224 
	C195.600876,186.293427 195.994156,186.521729 196.591064,186.853333 
z"/>
<path fill="#AEAAA3" opacity="1.000000" stroke="none" 
	d="
M177.762787,213.254547 
	C177.188232,214.490158 176.424866,215.874374 175.306839,216.853653 
	C171.829788,219.899261 167.699875,222.366623 164.823242,225.877640 
	C162.530975,228.675385 161.779129,232.708572 160.194214,236.124069 
	C159.433334,237.763718 158.327362,239.243225 157.096466,240.892609 
	C156.437500,239.938736 155.613235,238.825378 155.749557,237.845688 
	C157.549377,224.910233 166.552139,218.232025 177.762787,213.254547 
z"/>
<path fill="#EBE6DC" opacity="1.000000" stroke="none" 
	d="
M169.957031,236.828705 
	C172.425446,226.563843 179.151031,221.686646 189.130081,220.397034 
	C181.462387,225.050827 173.864136,229.701340 174.279205,241.003372 
	C172.911362,241.374146 170.766388,241.955582 168.256821,242.635849 
	C168.917419,240.448166 169.407227,238.826141 169.957031,236.828705 
z"/>
<path fill="#E0DCD2" opacity="1.000000" stroke="none" 
	d="
M248.608078,224.543228 
	C255.892929,222.500153 262.819824,220.606400 270.002808,218.642639 
	C263.259979,228.505783 253.863647,228.220703 244.473450,226.212234 
	C244.608551,226.121841 245.185364,225.605591 245.859787,225.319519 
	C246.610199,225.001205 247.449509,224.892502 248.608078,224.543228 
z"/>
<path fill="#BBBBBB" opacity="1.000000" stroke="none" 
	d="
M243.279358,285.852753 
	C243.226700,284.887512 243.525833,284.013580 244.107239,282.577698 
	C250.634064,277.987274 250.771942,271.188049 252.318222,264.869507 
	C252.368042,264.543365 252.234772,264.292480 252.014771,263.701538 
	C251.975922,262.899292 252.023788,262.437073 252.071655,261.974854 
	C252.488068,259.824280 252.904465,257.673706 253.604538,255.274323 
	C258.135986,266.557373 253.029938,281.948914 243.279358,285.852753 
z"/>
<path fill="#622DD0" opacity="1.000000" stroke="none" 
	d="
M327.309692,220.154114 
	C326.993225,219.987701 326.987732,219.597763 326.988922,219.402832 
	C331.073120,219.636322 335.156097,220.064758 339.733398,220.545059 
	C339.733398,224.487381 339.733398,228.223114 339.688904,232.410492 
	C337.693665,232.754898 335.742950,232.647659 333.776154,232.539520 
	C334.717529,224.395706 333.850525,222.732086 327.309692,220.154114 
z"/>
<path fill="#ECECEC" opacity="1.000000" stroke="none" 
	d="
M272.715454,226.301117 
	C275.696198,228.863342 275.531647,231.246811 273.206116,233.780106 
	C272.856689,234.160736 273.059448,235.048248 272.894836,237.089218 
	C271.179626,236.243835 268.389282,235.771011 267.844757,234.403763 
	C266.850891,231.908340 266.398926,228.614304 267.232849,226.169067 
	C267.835693,224.401443 270.883698,223.467743 272.841248,222.162140 
	C273.138489,222.626175 273.435699,223.090210 273.732941,223.554245 
	C272.591644,224.200546 271.450317,224.846832 269.901398,225.723969 
	C271.106384,225.908768 271.752167,226.007797 272.715454,226.301117 
z"/>
<path fill="#A29F98" opacity="1.000000" stroke="none" 
	d="
M260.981750,263.346680 
	C262.287689,262.740295 264.068115,261.838776 264.728577,262.359039 
	C271.164429,267.428619 278.757660,267.927917 286.701477,268.588013 
	C281.023315,268.856659 275.052460,268.601044 269.109406,268.899506 
	C264.909332,269.110352 262.129608,267.860565 260.981750,263.346680 
z"/>
<path fill="#F0F0F0" opacity="1.000000" stroke="none" 
	d="
M321.952271,227.057953 
	C323.594788,225.873596 325.153595,225.058182 326.712433,224.242767 
	C327.113007,227.423874 332.738953,229.259750 329.070801,233.524094 
	C328.474121,234.217758 328.225739,235.211060 327.557220,236.607040 
	C322.874023,237.036423 320.541016,233.887680 321.952271,227.057953 
z"/>
<path fill="#1AD7B6" opacity="1.000000" stroke="none" 
	d="
M232.972137,178.306992 
	C229.039551,178.739502 225.092422,178.869858 220.700958,178.976852 
	C220.648376,177.455872 221.040115,175.958267 222.081818,174.219055 
	C224.807236,174.112778 226.882660,174.248108 228.958099,174.383423 
	C230.291275,175.590561 231.624435,176.797699 232.972137,178.306992 
z"/>
<path fill="#1AD7B6" opacity="1.000000" stroke="none" 
	d="
M214.286438,178.774124 
	C211.409973,178.926849 208.770157,178.871780 205.701370,178.746201 
	C206.718674,176.782455 208.164978,174.889221 210.357605,172.974548 
	C212.973923,173.112747 214.843887,173.272415 216.713867,173.432083 
	C215.983597,175.143494 215.253357,176.854919 214.286438,178.774124 
z"/>
<path fill="#C6C6C6" opacity="1.000000" stroke="none" 
	d="
M315.817078,228.680099 
	C314.020905,228.375061 312.293549,227.690781 310.210632,227.015121 
	C309.391846,224.161072 308.928619,221.298386 308.380768,217.912613 
	C313.985657,219.761292 315.199219,223.846252 315.817078,228.680099 
z"/>
<path fill="#1AD7B6" opacity="1.000000" stroke="none" 
	d="
M234.957489,175.213806 
	C241.101089,175.116821 247.146561,175.434769 253.192047,175.752731 
	C253.202301,176.143585 253.212570,176.534454 253.222839,176.925323 
	C247.394623,177.341782 241.566391,177.758240 235.264771,178.175751 
	C234.814041,177.327469 234.836700,176.478104 234.957489,175.213806 
z"/>
<path fill="#EBE6DC" opacity="1.000000" stroke="none" 
	d="
M272.010376,218.166351 
	C276.108002,216.977829 280.205597,215.789307 284.303223,214.600800 
	C284.456573,214.863205 284.609894,215.125626 284.763245,215.388046 
	C282.841583,217.663132 280.919922,219.938202 279.144073,222.040680 
	C276.812683,221.005722 274.756073,220.092743 272.353821,218.867981 
	C272.008179,218.556198 272.010376,218.166367 272.010376,218.166351 
z"/>
<path fill="#C6C6C6" opacity="1.000000" stroke="none" 
	d="
M283.976318,234.976151 
	C284.009338,236.035629 284.042389,237.095093 284.033081,238.550278 
	C283.990723,240.416153 283.990723,241.886307 283.990723,243.356476 
	C283.745087,243.415634 283.499481,243.474808 283.253845,243.533981 
	C281.666779,238.172699 280.079712,232.811417 279.006592,227.394562 
	C280.382782,227.875992 281.245026,228.412979 282.107300,228.949966 
	C282.107300,228.949966 282.046844,228.950638 282.062347,228.924667 
	C282.524994,230.801895 282.972107,232.705093 283.709534,234.803986 
	C283.999817,234.999664 283.976288,234.976151 283.976318,234.976151 
z"/>
<path fill="#622DD0" opacity="1.000000" stroke="none" 
	d="
M216.872360,173.036240 
	C214.843887,173.272415 212.973923,173.112747 210.716888,172.896881 
	C210.968857,171.931259 212.109283,171.045776 212.154083,170.107971 
	C212.295166,167.154007 213.888977,165.684464 216.468506,166.237152 
	C217.135880,166.380157 217.213272,169.482925 217.459381,171.240479 
	C217.520721,171.678528 217.184402,172.172256 216.872360,173.036240 
z"/>
<path fill="#A29F98" opacity="1.000000" stroke="none" 
	d="
M301.301025,269.097870 
	C303.665405,269.103058 306.354004,269.145233 308.956177,269.640961 
	C312.822754,270.377502 316.628143,271.434967 320.722046,272.625305 
	C318.308319,272.800629 315.562256,273.053131 312.972412,272.530884 
	C309.119171,271.753815 305.376373,270.429321 301.301025,269.097870 
z"/>
<path fill="#E0DCD2" opacity="1.000000" stroke="none" 
	d="
M256.734222,282.557861 
	C254.724533,284.406708 252.936615,285.955841 250.739868,287.859222 
	C253.970825,282.016632 256.829590,276.847137 259.688324,271.677643 
	C259.929626,271.714600 260.170898,271.751556 260.412201,271.788483 
	C259.260132,275.278381 258.108063,278.768250 256.734222,282.557861 
z"/>
<path fill="#6823D7" opacity="1.000000" stroke="none" 
	d="
M228.962585,173.987915 
	C226.882660,174.248108 224.807236,174.112778 222.285217,173.954926 
	C222.183670,171.085846 222.528702,168.239319 223.004349,164.315170 
	C225.629135,168.399002 227.298096,170.995697 228.962585,173.987915 
z"/>
<path fill="#ECECEC" opacity="1.000000" stroke="none" 
	d="
M308.085876,247.327362 
	C309.101929,245.808685 310.074799,244.633057 311.423523,243.003204 
	C311.782379,245.022781 312.075439,246.672272 312.431854,248.678207 
	C311.224670,248.797058 310.146118,248.903259 308.704529,249.011627 
	C308.241882,248.565994 308.142303,248.118195 308.085876,247.327362 
z"/>
<path fill="#A29F98" opacity="1.000000" stroke="none" 
	d="
M294.309326,268.868103 
	C295.567230,268.541016 297.246887,268.337463 299.011414,268.465332 
	C297.641235,268.861725 296.186157,268.926636 294.309326,268.868103 
z"/>
<path fill="#F3F3F3" opacity="1.000000" stroke="none" 
	d="
M282.058838,228.587982 
	C281.245026,228.412979 280.382782,227.875992 279.238403,227.162811 
	C279.347748,225.990356 279.739197,224.994080 280.443085,223.202713 
	C281.154724,225.483597 281.582550,226.854797 282.058838,228.587982 
z"/>
<path fill="#BBBBBB" opacity="1.000000" stroke="none" 
	d="
M253.751572,252.789749 
	C253.240967,252.498047 252.813293,251.905334 252.616196,251.172775 
	C253.176010,251.518204 253.505249,252.003464 253.751572,252.789749 
z"/>
<path fill="#14E9B7" opacity="1.000000" stroke="none" 
	d="
M208.742172,157.783447 
	C209.493011,158.005600 209.857346,158.342758 210.221695,158.679932 
	C209.670227,158.924988 209.118759,159.170044 208.567291,159.415115 
	C208.496750,158.909561 208.426224,158.404007 208.742172,157.783447 
z"/>
<path fill="#14E9B7" opacity="1.000000" stroke="none" 
	d="
M213.949829,153.066864 
	C214.145477,153.086426 214.356323,153.081009 214.567184,153.075592 
	C214.448166,153.151901 214.329147,153.228210 214.102264,153.147919 
	C213.994400,152.991302 213.965057,153.041901 213.949829,153.066864 
z"/>
<path fill="#6823D7" opacity="1.000000" stroke="none" 
	d="
M191.309219,200.875153 
	C191.190781,200.592239 191.326447,200.258972 191.738571,199.941772 
	C191.864456,200.246826 191.713898,200.535812 191.309219,200.875153 
z"/>
<path fill="#A29F98" opacity="1.000000" stroke="none" 
	d="
M266.362640,270.227173 
	C266.589752,270.183838 266.676422,270.288605 266.763062,270.393372 
	C266.582764,270.387360 266.402496,270.381317 266.362640,270.227173 
z"/>
<path fill="#E0DCD2" opacity="1.000000" stroke="none" 
	d="
M271.711334,218.160324 
	C272.010376,218.166367 272.008179,218.556198 272.005981,218.751068 
	C271.806641,218.682037 271.609467,218.418152 271.711334,218.160324 
z"/>
<path fill="#ECECEC" opacity="1.000000" stroke="none" 
	d="
M304.825226,223.733063 
	C304.767792,224.009003 304.371124,224.006775 304.172913,223.998627 
	C304.277313,223.812698 304.579987,223.634903 304.825226,223.733063 
z"/>
<path fill="#FFFFFF" opacity="1.000000" stroke="none" 
	d="
M140.757935,341.710510 
	C141.718185,343.865295 142.200180,345.856445 142.682190,347.847626 
	C142.239990,347.998505 141.797791,348.149353 141.355591,348.300232 
	C140.368835,346.536255 139.327057,344.797455 138.488861,342.965515 
	C138.413284,342.800354 139.651581,342.034027 140.757935,341.710510 
z"/>
<path fill="#E4E4E4" opacity="1.000000" stroke="none" 
	d="
M392.527466,342.111938 
	C393.740082,342.010712 394.715820,341.718109 395.347534,342.060486 
	C396.536224,342.704590 397.526337,343.715057 398.599030,344.573181 
	C397.454742,345.366516 396.391418,346.348663 395.137512,346.886353 
	C394.312469,347.240143 393.212646,346.953217 391.554657,346.953217 
	C391.770081,345.192322 391.952698,343.699768 392.527466,342.111938 
z"/>
<path fill="#FAFAFA" opacity="1.000000" stroke="none" 
	d="
M163.934189,346.237427 
	C163.400879,341.960449 165.859070,342.072998 168.549133,342.005951 
	C172.116196,341.917053 172.044800,344.063873 171.831360,346.819458 
	C170.393524,346.946075 168.991791,347.069550 166.411423,347.296783 
	C167.487411,349.227112 168.180481,350.552765 168.952545,351.830688 
	C169.627884,352.948486 170.392105,354.012604 171.117081,355.100433 
	C169.928223,355.699493 168.689072,356.852295 167.563904,356.750092 
	C166.305817,356.635834 164.298553,355.547089 164.115982,354.595032 
	C163.627182,352.045837 163.939804,349.342957 163.934189,346.237427 
z"/>
<path fill="#ECECEC" opacity="1.000000" stroke="none" 
	d="
M253.022888,342.013855 
	C256.318268,341.650085 257.893982,342.563416 257.632629,345.786102 
	C257.445587,348.092133 257.489380,350.431671 257.623199,352.745117 
	C257.783325,355.513733 257.144806,357.055450 253.847153,357.040009 
	C250.653458,357.025024 249.807693,355.701294 250.005005,352.823090 
	C250.174698,350.347717 249.768829,347.808441 250.154190,345.382660 
	C250.347992,344.162689 251.734940,343.132263 253.022888,342.013855 
z"/>
<path fill="#091617" opacity="1.000000" stroke="none" 
	d="
M259.172241,147.694458 
	C258.408600,149.278763 257.829071,150.539810 257.558411,151.128769 
	C254.758423,150.298981 251.870880,149.443237 248.703293,148.378540 
	C251.775726,144.770203 260.067139,143.560684 263.852509,146.223541 
	C262.194153,146.646835 260.775299,147.009018 259.172241,147.694458 
z"/>
<path fill="#0B0C0C" opacity="1.000000" stroke="none" 
	d="
M188.339081,162.445404 
	C188.108459,162.470642 187.720276,162.277267 187.575424,161.955994 
	C187.939667,161.960968 188.060577,162.093872 188.339081,162.445404 
z"/>
<path fill="#0B0B0B" opacity="1.000000" stroke="none" 
	d="
M225.209503,238.204407 
	C221.097275,242.294250 216.558548,246.043961 212.966156,250.548386 
	C206.507690,258.646545 198.186783,263.051117 188.267410,265.060333 
	C183.334732,266.059479 178.455444,267.322174 173.545837,268.997101 
	C177.480347,268.997101 181.414871,268.997101 185.604355,268.997101 
	C180.311539,272.148621 168.073364,274.050049 162.742950,271.949707 
	C160.629547,271.116974 158.913696,268.711151 157.552689,266.665131 
	C155.510849,263.595581 153.941147,260.211945 152.303528,257.205750 
	C162.644760,254.326187 173.655228,249.466934 184.981522,248.562439 
	C198.991104,247.443680 210.970428,241.361252 224.319305,237.530273 
	C224.964157,237.897766 225.086823,238.051086 225.209503,238.204407 
z"/>
<path fill="#171716" opacity="1.000000" stroke="none" 
	d="
M150.901001,283.785645 
	C145.719284,283.689331 145.332108,279.892273 144.929260,276.505402 
	C144.418137,272.208282 144.206192,267.656677 148.340118,264.814209 
	C149.309982,264.147339 151.363693,265.056793 154.145996,265.386444 
	C151.507111,267.102722 150.151840,267.984192 148.720718,268.914978 
	C153.072495,273.580963 153.114197,275.682495 150.669006,278.162842 
	C147.586777,282.085205 155.068878,280.087738 150.901001,283.785645 
z"/>
<path fill="#242322" opacity="1.000000" stroke="none" 
	d="
M268.413239,247.788361 
	C263.965912,243.970978 259.518616,240.153610 254.329361,235.699402 
	C261.459198,237.164124 265.781525,240.899551 268.969574,246.637939 
	C268.691803,247.413483 268.552521,247.600922 268.413239,247.788361 
z"/>
<path fill="#242322" opacity="1.000000" stroke="none" 
	d="
M269.066284,246.966492 
	C269.636261,247.300934 269.971039,247.894958 270.140900,248.760376 
	C269.975952,249.031769 270.021820,248.976410 270.021820,248.976410 
	C269.596741,248.721024 269.171661,248.465637 268.579895,247.999298 
	C268.552521,247.600922 268.691803,247.413483 269.066284,246.966492 
z"/>
<path fill="#0B0B0B" opacity="1.000000" stroke="none" 
	d="
M224.700104,237.486084 
	C224.941681,237.471161 225.324631,237.714615 225.458557,238.081238 
	C225.086823,238.051086 224.964157,237.897766 224.700104,237.486084 
z"/>
<path fill="#242322" opacity="1.000000" stroke="none" 
	d="
M269.956055,249.061722 
	C270.175995,249.074661 270.417206,249.040543 270.654266,249.059052 
	C270.689819,249.061829 270.706177,249.310883 270.731415,249.446014 
	C270.510742,249.483063 270.290100,249.520111 270.045624,249.266785 
	C270.021820,248.976410 269.975952,249.031769 269.956055,249.061722 
z"/>
<path fill="#0B0C0C" opacity="1.000000" stroke="none" 
	d="
M344.528259,243.412048 
	C344.607422,243.806976 344.686584,244.201904 344.765778,244.596832 
	C344.535675,244.599640 344.305573,244.602432 344.154785,244.178970 
	C344.234100,243.752716 344.528259,243.412048 344.528259,243.412048 
z"/>
<path fill="#0B0C0C" opacity="1.000000" stroke="none" 
	d="
M344.077881,243.914719 
	C343.593933,243.974716 343.266205,243.872696 342.815186,243.538422 
	C342.863190,243.166550 343.034454,243.026962 343.482086,242.704407 
	C343.983124,242.667999 344.174988,242.849243 344.431183,243.238617 
	C344.528259,243.412048 344.234100,243.752716 344.077881,243.914719 
z"/>
<path fill="#C6C6C6" opacity="1.000000" stroke="none" 
	d="
M284.011414,235.011566 
	C284.365540,234.422745 284.708069,233.822021 285.050568,233.221313 
	C285.279572,233.396164 285.508575,233.571030 285.737579,233.745880 
	C285.371521,234.164505 285.005463,234.583130 284.307861,234.988953 
	C283.976288,234.976151 283.999817,234.999664 284.011414,235.011566 
z"/>
<path fill="#ECECEC" opacity="1.000000" stroke="none" 
	d="
M310.635498,252.010254 
	C310.793762,252.537369 310.665253,253.108994 310.285645,253.846725 
	C310.139313,253.360138 310.244049,252.707443 310.635498,252.010254 
z"/>
<path fill="#C6C6C6" opacity="1.000000" stroke="none" 
	d="
M284.785156,229.977295 
	C284.573181,230.192795 284.350983,230.214096 284.144684,230.166458 
	C284.100769,230.156326 284.114838,229.895325 284.102173,229.749908 
	C284.328339,229.752777 284.554504,229.755646 284.785156,229.977295 
z"/>
<path fill="#ECECEC" opacity="1.000000" stroke="none" 
	d="
M311.902649,251.928040 
	C311.955597,252.117050 311.475800,251.985077 311.229523,251.948669 
	C311.272064,251.854523 311.560913,251.796783 311.902649,251.928040 
z"/>
<path fill="#101010" opacity="1.000000" stroke="none" 
	d="
M252.021744,261.568909 
	C252.023788,262.437073 251.975922,262.899292 251.978882,263.928986 
	C252.029724,264.496460 252.135132,264.944763 252.135132,264.944763 
	C250.771942,271.188049 250.634064,277.987274 244.157410,282.228638 
	C242.054108,282.076172 239.848236,282.219727 238.374084,281.250458 
	C233.856140,278.279846 231.481216,269.467957 233.895523,264.299561 
	C234.499664,263.589691 234.715591,263.204102 234.931519,262.818542 
	C234.435379,262.583466 233.939224,262.348419 233.443054,262.113373 
	C231.068863,256.867828 233.175720,252.320892 235.846680,247.989029 
	C239.203995,242.544037 245.130127,242.358612 247.979660,247.992554 
	C250.018860,252.024368 250.690186,256.748016 252.021744,261.568909 
M238.002258,265.252289 
	C239.122345,267.168549 240.242447,269.084808 241.362564,271.001068 
	C242.573914,269.647278 244.531464,268.441162 244.834946,266.907684 
	C245.396408,264.070465 245.207748,261.016266 244.868851,258.106354 
	C244.748734,257.075134 243.239487,255.403595 242.436722,255.444473 
	C241.269913,255.503891 239.570587,256.624268 239.166687,257.695160 
	C238.380005,259.780945 238.334717,262.146393 238.002258,265.252289 
z"/>
<path fill="#A29F98" opacity="1.000000" stroke="none" 
	d="
M233.257202,262.235535 
	C233.939224,262.348419 234.435379,262.583466 234.931519,262.818542 
	C234.715591,263.204102 234.499664,263.589691 233.860291,263.933899 
	C233.315018,263.380920 233.193176,262.869293 233.257202,262.235535 
z"/>
<path fill="#F3F3F3" opacity="1.000000" stroke="none" 
	d="
M310.989502,258.006775 
	C311.105865,258.130615 311.231873,258.247192 311.357849,258.363800 
	C311.289124,258.313934 311.220367,258.264069 311.081696,258.096802 
	C311.011780,257.979340 310.999115,257.999573 310.989502,258.006775 
z"/>
<path fill="#F0F0F0" opacity="1.000000" stroke="none" 
	d="
M252.318222,264.869507 
	C252.135132,264.944763 252.029724,264.496460 252.065613,264.269012 
	C252.234772,264.292480 252.368042,264.543365 252.318222,264.869507 
z"/>
<path fill="#ECECEC" opacity="1.000000" stroke="none" 
	d="
M237.992310,264.824158 
	C238.334717,262.146393 238.380005,259.780945 239.166687,257.695160 
	C239.570587,256.624268 241.269913,255.503891 242.436722,255.444473 
	C243.239487,255.403595 244.748734,257.075134 244.868851,258.106354 
	C245.207748,261.016266 245.396408,264.070465 244.834946,266.907684 
	C244.531464,268.441162 242.573914,269.647278 241.362549,271.001068 
	C240.242447,269.084808 239.122345,267.168549 237.992310,264.824158 
M239.601486,263.446442 
	C239.889404,264.923523 240.177307,266.400604 240.720276,269.186188 
	C243.799179,264.940613 243.481766,261.953308 240.776062,258.682465 
	C240.421829,259.976898 240.067581,261.271301 239.601486,263.446442 
z"/>
<path fill="#121212" opacity="1.000000" stroke="none" 
	d="
M239.657410,263.006073 
	C240.067581,261.271301 240.421829,259.976898 240.776062,258.682465 
	C243.481766,261.953308 243.799179,264.940613 240.720276,269.186188 
	C240.177307,266.400604 239.889404,264.923523 239.657410,263.006073 
z"/>
</svg>